solid OpenSCAD_Model
  facet normal 0 0 -1
    outer loop
      vertex 1 3 0
      vertex 3 4 0
      vertex 3 3 0
    endloop
  endfacet
  facet normal -0 0 -1
    outer loop
      vertex 3 4 0
      vertex 1 3 0
      vertex 1 4 0
    endloop
  endfacet
  facet normal -0 0 1
    outer loop
      vertex 0 1.5 4
      vertex 1 0 4
      vertex 1 1.5 4
    endloop
  endfacet
  facet normal 0 0 1
    outer loop
      vertex 1 0 4
      vertex 0 1.5 4
      vertex 0 0 4
    endloop
  endfacet
  facet normal -0 0 1
    outer loop
      vertex 0 4 4
      vertex 1 3 4
      vertex 1 4 4
    endloop
  endfacet
  facet normal 0 0 1
    outer loop
      vertex 1 3 4
      vertex 0 4 4
      vertex 0 3 4
    endloop
  endfacet
  facet normal -0 0 1
    outer loop
      vertex 3 4 4
      vertex 4 3 4
      vertex 4 4 4
    endloop
  endfacet
  facet normal 0 0 1
    outer loop
      vertex 4 3 4
      vertex 3 4 4
      vertex 3 3 4
    endloop
  endfacet
  facet normal 1 0 0
    outer loop
      vertex 1 3 1.5
      vertex 1 2.5 0
      vertex 1 3 0
    endloop
  endfacet
  facet normal 1 -0 0
    outer loop
      vertex 1 1 2.5
      vertex 1 3 1.5
      vertex 1 1.5 4
    endloop
  endfacet
  facet normal 1 0 0
    outer loop
      vertex 1 3 1.5
      vertex 1 1 2.5
      vertex 1 2.5 0
    endloop
  endfacet
  facet normal 1 -0 0
    outer loop
      vertex 1 0 4
      vertex 1 1 2.5
      vertex 1 1.5 4
    endloop
  endfacet
  facet normal 1 0 0
    outer loop
      vertex 1 0 0
      vertex 1 1 2.5
      vertex 1 0 4
    endloop
  endfacet
  facet normal 1 0 0
    outer loop
      vertex 1 1 2.5
      vertex 1 0 0
      vertex 1 1 0
    endloop
  endfacet
  facet normal 1 -0 0
    outer loop
      vertex 1 3 4
      vertex 1 4 2.5
      vertex 1 4 4
    endloop
  endfacet
  facet normal 1 0 0
    outer loop
      vertex 1 4 2.5
      vertex 1 3 4
      vertex 1 3 2.5
    endloop
  endfacet
  facet normal 0 -1 0
    outer loop
      vertex 0 3 4
      vertex 1 3 2.5
      vertex 1 3 4
    endloop
  endfacet
  facet normal 0 -1 0
    outer loop
      vertex 1 3 1.5
      vertex 1 3 2.5
      vertex 0 3 1.5
    endloop
  endfacet
  facet normal 0 -1 0
    outer loop
      vertex 0 3 1.5
      vertex 1 3 2.5
      vertex 0 3 4
    endloop
  endfacet
  facet normal 0 -1 0
    outer loop
      vertex 3 3 2.5
      vertex 4 3 4
      vertex 3 3 4
    endloop
  endfacet
  facet normal 0 -1 0
    outer loop
      vertex 1 3 2.5
      vertex 1 3 1.5
      vertex 3 3 2.5
    endloop
  endfacet
  facet normal 0 -1 0
    outer loop
      vertex 3 3 1.5
      vertex 3 3 2.5
      vertex 1 3 1.5
    endloop
  endfacet
  facet normal 0 -1 0
    outer loop
      vertex 4 3 1
      vertex 3 3 2.5
      vertex 3 3 1.5
    endloop
  endfacet
  facet normal 0 -1 0
    outer loop
      vertex 4 3 1
      vertex 3 3 1.5
      vertex 2.99809 3 1.45644
    endloop
  endfacet
  facet normal 0 -1 0
    outer loop
      vertex 4 3 1
      vertex 2.99809 3 1.45644
      vertex 2.9924 3 1.41318
    endloop
  endfacet
  facet normal 0 -1 0
    outer loop
      vertex 4 3 1
      vertex 2.9924 3 1.41318
      vertex 2.98296 3 1.37061
    endloop
  endfacet
  facet normal 0 -1 0
    outer loop
      vertex 4 3 1
      vertex 2.98296 3 1.37061
      vertex 2.96983 3 1.32899
    endloop
  endfacet
  facet normal 0 -1 0
    outer loop
      vertex 3 3 2.5
      vertex 4 3 1
      vertex 4 3 4
    endloop
  endfacet
  facet normal 0 -1 0
    outer loop
      vertex 2.95314 3 1.2887
      vertex 4 3 1
      vertex 2.96983 3 1.32899
    endloop
  endfacet
  facet normal 0 -1 0
    outer loop
      vertex 2.933 3 1.25
      vertex 4 3 1
      vertex 2.95314 3 1.2887
    endloop
  endfacet
  facet normal 0 -1 0
    outer loop
      vertex 3.9848 3 0.826355
      vertex 2.933 3 1.25
      vertex 2.90956 3 1.21323
    endloop
  endfacet
  facet normal 0 -1 0
    outer loop
      vertex 3.9063 3 0.577393
      vertex 2.90956 3 1.21323
      vertex 2.88301 3 1.17862
    endloop
  endfacet
  facet normal 0 -1 0
    outer loop
      vertex 3.81914 3 0.426437
      vertex 2.88301 3 1.17862
      vertex 2.85355 3 1.14645
    endloop
  endfacet
  facet normal 0 -1 0
    outer loop
      vertex 3.64278 3 0.233963
      vertex 2.85355 3 1.14645
      vertex 2.82138 3 1.11699
    endloop
  endfacet
  facet normal 0 -1 0
    outer loop
      vertex 3.42261 3 0.0937042
      vertex 2.82138 3 1.11699
      vertex 2.78677 3 1.09044
    endloop
  endfacet
  facet normal 0 -1 0
    outer loop
      vertex 3.17365 3 0.0151978
      vertex 2.78677 3 1.09044
      vertex 2.75 3 1.067
    endloop
  endfacet
  facet normal 0 -1 0
    outer loop
      vertex 3 3 0
      vertex 2.75 3 1.067
      vertex 2.7113 3 1.04686
    endloop
  endfacet
  facet normal 0 -1 0
    outer loop
      vertex 3 3 0
      vertex 2.7113 3 1.04686
      vertex 2.67101 3 1.03017
    endloop
  endfacet
  facet normal 0 -1 0
    outer loop
      vertex 3 3 0
      vertex 2.67101 3 1.03017
      vertex 2.62939 3 1.01704
    endloop
  endfacet
  facet normal 0 -1 0
    outer loop
      vertex 3 3 0
      vertex 2.62939 3 1.01704
      vertex 2.58682 3 1.0076
    endloop
  endfacet
  facet normal 0 -1 0
    outer loop
      vertex 3 3 0
      vertex 2.58682 3 1.0076
      vertex 2.54356 3 1.00191
    endloop
  endfacet
  facet normal 0 -1 0
    outer loop
      vertex 3 3 0
      vertex 2.54356 3 1.00191
      vertex 2.5 3 1
    endloop
  endfacet
  facet normal 0 -1 0
    outer loop
      vertex 3 3 0
      vertex 2.5 3 1
      vertex 1.5 3 1
    endloop
  endfacet
  facet normal 0 -1 0
    outer loop
      vertex 2.75 3 1.067
      vertex 3 3 0
      vertex 3.08714 3 0.0038147
    endloop
  endfacet
  facet normal 0 -1 0
    outer loop
      vertex 2.933 3 1.25
      vertex 3.99619 3 0.912857
      vertex 4 3 1
    endloop
  endfacet
  facet normal 0 -1 0
    outer loop
      vertex 1 3 0
      vertex 1.5 3 1
      vertex 1.45642 3 1.00191
    endloop
  endfacet
  facet normal 0 -1 0
    outer loop
      vertex 2.933 3 1.25
      vertex 3.9848 3 0.826355
      vertex 3.99619 3 0.912857
    endloop
  endfacet
  facet normal 0 -1 0
    outer loop
      vertex 2.90956 3 1.21323
      vertex 3.96591 3 0.741196
      vertex 3.9848 3 0.826355
    endloop
  endfacet
  facet normal 0 -1 0
    outer loop
      vertex 1 3 0
      vertex 1.45642 3 1.00191
      vertex 1.41316 3 1.0076
    endloop
  endfacet
  facet normal 0 -1 0
    outer loop
      vertex 2.90956 3 1.21323
      vertex 3.93968 3 0.65799
      vertex 3.96591 3 0.741196
    endloop
  endfacet
  facet normal 0 -1 0
    outer loop
      vertex 2.90956 3 1.21323
      vertex 3.9063 3 0.577393
      vertex 3.93968 3 0.65799
    endloop
  endfacet
  facet normal 0 -1 0
    outer loop
      vertex 2.88301 3 1.17862
      vertex 3.86601 3 0.5
      vertex 3.9063 3 0.577393
    endloop
  endfacet
  facet normal 0 -1 0
    outer loop
      vertex 1 3 0
      vertex 1.41316 3 1.0076
      vertex 1.37059 3 1.01704
    endloop
  endfacet
  facet normal 0 -1 0
    outer loop
      vertex 2.88301 3 1.17862
      vertex 3.81914 3 0.426437
      vertex 3.86601 3 0.5
    endloop
  endfacet
  facet normal 0 -1 0
    outer loop
      vertex 2.85355 3 1.14645
      vertex 3.76604 3 0.357224
      vertex 3.81914 3 0.426437
    endloop
  endfacet
  facet normal 0 -1 0
    outer loop
      vertex 2.85355 3 1.14645
      vertex 3.70709 3 0.292908
      vertex 3.76604 3 0.357224
    endloop
  endfacet
  facet normal 0 -1 0
    outer loop
      vertex 1 3 0
      vertex 1.37059 3 1.01704
      vertex 1.32898 3 1.03017
    endloop
  endfacet
  facet normal 0 -1 0
    outer loop
      vertex 2.85355 3 1.14645
      vertex 3.64278 3 0.233963
      vertex 3.70709 3 0.292908
    endloop
  endfacet
  facet normal 0 -1 0
    outer loop
      vertex 2.82138 3 1.11699
      vertex 3.57356 3 0.180862
      vertex 3.64278 3 0.233963
    endloop
  endfacet
  facet normal 0 -1 0
    outer loop
      vertex 2.82138 3 1.11699
      vertex 3.5 3 0.133987
      vertex 3.57356 3 0.180862
    endloop
  endfacet
  facet normal 0 -1 0
    outer loop
      vertex 1 3 0
      vertex 1.32898 3 1.03017
      vertex 1.28868 3 1.04686
    endloop
  endfacet
  facet normal 0 -1 0
    outer loop
      vertex 2.82138 3 1.11699
      vertex 3.42261 3 0.0937042
      vertex 3.5 3 0.133987
    endloop
  endfacet
  facet normal 0 -1 0
    outer loop
      vertex 2.78677 3 1.09044
      vertex 3.34201 3 0.060318
      vertex 3.42261 3 0.0937042
    endloop
  endfacet
  facet normal 0 -1 0
    outer loop
      vertex 2.78677 3 1.09044
      vertex 3.2588 3 0.0340881
      vertex 3.34201 3 0.060318
    endloop
  endfacet
  facet normal 0 -1 0
    outer loop
      vertex 1 3 0
      vertex 1.28868 3 1.04686
      vertex 1.25 3 1.067
    endloop
  endfacet
  facet normal 0 -1 0
    outer loop
      vertex 2.78677 3 1.09044
      vertex 3.17365 3 0.0151978
      vertex 3.2588 3 0.0340881
    endloop
  endfacet
  facet normal 0 -1 0
    outer loop
      vertex 1 3 0
      vertex 1.00189 3 1.45644
      vertex 1 3 1.5
    endloop
  endfacet
  facet normal 0 -1 0
    outer loop
      vertex 1 3 0
      vertex 1.00758 3 1.41318
      vertex 1.00189 3 1.45644
    endloop
  endfacet
  facet normal 0 -1 0
    outer loop
      vertex 1 3 0
      vertex 1.01703 3 1.37061
      vertex 1.00758 3 1.41318
    endloop
  endfacet
  facet normal 0 -1 0
    outer loop
      vertex 1 3 0
      vertex 1.03015 3 1.32899
      vertex 1.01703 3 1.37061
    endloop
  endfacet
  facet normal 0 -1 0
    outer loop
      vertex 1 3 0
      vertex 1.04684 3 1.2887
      vertex 1.03015 3 1.32899
    endloop
  endfacet
  facet normal 0 -1 0
    outer loop
      vertex 1 3 0
      vertex 1.06699 3 1.25
      vertex 1.04684 3 1.2887
    endloop
  endfacet
  facet normal 0 -1 0
    outer loop
      vertex 1 3 0
      vertex 1.09042 3 1.21323
      vertex 1.06699 3 1.25
    endloop
  endfacet
  facet normal 0 -1 0
    outer loop
      vertex 1 3 0
      vertex 1.11697 3 1.17862
      vertex 1.09042 3 1.21323
    endloop
  endfacet
  facet normal 0 -1 0
    outer loop
      vertex 1 3 0
      vertex 1.14644 3 1.14645
      vertex 1.11697 3 1.17862
    endloop
  endfacet
  facet normal 0 -1 0
    outer loop
      vertex 1 3 0
      vertex 1.1786 3 1.11699
      vertex 1.14644 3 1.14645
    endloop
  endfacet
  facet normal 0 -1 0
    outer loop
      vertex 1 3 0
      vertex 1.21321 3 1.09044
      vertex 1.1786 3 1.11699
    endloop
  endfacet
  facet normal 0 -1 0
    outer loop
      vertex 1 3 0
      vertex 1.25 3 1.067
      vertex 1.21321 3 1.09044
    endloop
  endfacet
  facet normal 0 -1 -0
    outer loop
      vertex 1.5 3 1
      vertex 1 3 0
      vertex 3 3 0
    endloop
  endfacet
  facet normal 0 -1 0
    outer loop
      vertex 2.75 3 1.067
      vertex 3.08714 3 0.0038147
      vertex 3.17365 3 0.0151978
    endloop
  endfacet
  facet normal 1 -0 0
    outer loop
      vertex 4 3 4
      vertex 4 4 1
      vertex 4 4 4
    endloop
  endfacet
  facet normal 1 0 0
    outer loop
      vertex 4 4 1
      vertex 4 3 4
      vertex 4 3 1
    endloop
  endfacet
  facet normal 0 1 0
    outer loop
      vertex 4 4 4
      vertex 3 4 2.5
      vertex 3 4 4
    endloop
  endfacet
  facet normal 0 1 0
    outer loop
      vertex 3 4 2.5
      vertex 3 4 1.5
      vertex 1 4 2.5
    endloop
  endfacet
  facet normal 0 1 -0
    outer loop
      vertex 4 4 1
      vertex 3 4 2.5
      vertex 4 4 4
    endloop
  endfacet
  facet normal 0 1 0
    outer loop
      vertex 3 4 2.5
      vertex 4 4 1
      vertex 3 4 1.5
    endloop
  endfacet
  facet normal 0 1 0
    outer loop
      vertex 3 4 1.5
      vertex 4 4 1
      vertex 2.99809 4 1.45644
    endloop
  endfacet
  facet normal 0 1 0
    outer loop
      vertex 2.99809 4 1.45644
      vertex 4 4 1
      vertex 2.9924 4 1.41318
    endloop
  endfacet
  facet normal 0 1 0
    outer loop
      vertex 2.9924 4 1.41318
      vertex 4 4 1
      vertex 2.98296 4 1.37061
    endloop
  endfacet
  facet normal 0 1 0
    outer loop
      vertex 2.98296 4 1.37061
      vertex 4 4 1
      vertex 2.96983 4 1.32899
    endloop
  endfacet
  facet normal 0 1 0
    outer loop
      vertex 4 4 1
      vertex 2.95314 4 1.2887
      vertex 2.96983 4 1.32899
    endloop
  endfacet
  facet normal 0 1 0
    outer loop
      vertex 4 4 1
      vertex 2.933 4 1.25
      vertex 2.95314 4 1.2887
    endloop
  endfacet
  facet normal 0 1 -0
    outer loop
      vertex 3.99619 4 0.912857
      vertex 2.933 4 1.25
      vertex 4 4 1
    endloop
  endfacet
  facet normal 0 1 -0
    outer loop
      vertex 3.9848 4 0.826355
      vertex 2.933 4 1.25
      vertex 3.99619 4 0.912857
    endloop
  endfacet
  facet normal 0 1 0
    outer loop
      vertex 2.933 4 1.25
      vertex 3.9848 4 0.826355
      vertex 2.90956 4 1.21323
    endloop
  endfacet
  facet normal 0 1 -0
    outer loop
      vertex 3.96591 4 0.741196
      vertex 2.90956 4 1.21323
      vertex 3.9848 4 0.826355
    endloop
  endfacet
  facet normal 0 1 -0
    outer loop
      vertex 3.93968 4 0.65799
      vertex 2.90956 4 1.21323
      vertex 3.96591 4 0.741196
    endloop
  endfacet
  facet normal 0 1 -0
    outer loop
      vertex 3.9063 4 0.577393
      vertex 2.90956 4 1.21323
      vertex 3.93968 4 0.65799
    endloop
  endfacet
  facet normal 0 1 0
    outer loop
      vertex 2.90956 4 1.21323
      vertex 3.9063 4 0.577393
      vertex 2.88301 4 1.17862
    endloop
  endfacet
  facet normal 0 1 -0
    outer loop
      vertex 3.86601 4 0.5
      vertex 2.88301 4 1.17862
      vertex 3.9063 4 0.577393
    endloop
  endfacet
  facet normal 0 1 -0
    outer loop
      vertex 3.81914 4 0.426437
      vertex 2.88301 4 1.17862
      vertex 3.86601 4 0.5
    endloop
  endfacet
  facet normal 0 1 0
    outer loop
      vertex 2.88301 4 1.17862
      vertex 3.81914 4 0.426437
      vertex 2.85355 4 1.14645
    endloop
  endfacet
  facet normal 0 1 -0
    outer loop
      vertex 3.76604 4 0.357224
      vertex 2.85355 4 1.14645
      vertex 3.81914 4 0.426437
    endloop
  endfacet
  facet normal 0 1 -0
    outer loop
      vertex 3.70709 4 0.292908
      vertex 2.85355 4 1.14645
      vertex 3.76604 4 0.357224
    endloop
  endfacet
  facet normal 0 1 -0
    outer loop
      vertex 3.64278 4 0.233963
      vertex 2.85355 4 1.14645
      vertex 3.70709 4 0.292908
    endloop
  endfacet
  facet normal 0 1 0
    outer loop
      vertex 2.5 4 1
      vertex 3 4 0
      vertex 1.5 4 1
    endloop
  endfacet
  facet normal 0 1 0
    outer loop
      vertex 2.85355 4 1.14645
      vertex 3.64278 4 0.233963
      vertex 2.82138 4 1.11699
    endloop
  endfacet
  facet normal 0 1 0
    outer loop
      vertex 1 4 0
      vertex 1.5 4 1
      vertex 3 4 0
    endloop
  endfacet
  facet normal 0 1 -0
    outer loop
      vertex 3.57356 4 0.180862
      vertex 2.82138 4 1.11699
      vertex 3.64278 4 0.233963
    endloop
  endfacet
  facet normal -0 1 0
    outer loop
      vertex 0.912842 4 0.0038147
      vertex 1.5 4 1
      vertex 1 4 0
    endloop
  endfacet
  facet normal 0 1 -0
    outer loop
      vertex 3.5 4 0.133987
      vertex 2.82138 4 1.11699
      vertex 3.57356 4 0.180862
    endloop
  endfacet
  facet normal 0 1 0
    outer loop
      vertex 1.5 4 1
      vertex 0.00379944 4 0.912857
      vertex 0 4 1
    endloop
  endfacet
  facet normal 0 1 -0
    outer loop
      vertex 3.42261 4 0.0937042
      vertex 2.82138 4 1.11699
      vertex 3.5 4 0.133987
    endloop
  endfacet
  facet normal 0 1 0
    outer loop
      vertex 1.5 4 1
      vertex 0.0151825 4 0.826355
      vertex 0.00379944 4 0.912857
    endloop
  endfacet
  facet normal 0 1 0
    outer loop
      vertex 2.82138 4 1.11699
      vertex 3.42261 4 0.0937042
      vertex 2.78677 4 1.09044
    endloop
  endfacet
  facet normal 0 1 0
    outer loop
      vertex 1.5 4 1
      vertex 0.0340729 4 0.741196
      vertex 0.0151825 4 0.826355
    endloop
  endfacet
  facet normal 0 1 -0
    outer loop
      vertex 3.34201 4 0.060318
      vertex 2.78677 4 1.09044
      vertex 3.42261 4 0.0937042
    endloop
  endfacet
  facet normal 0 1 0
    outer loop
      vertex 1.5 4 1
      vertex 0.0603027 4 0.65799
      vertex 0.0340729 4 0.741196
    endloop
  endfacet
  facet normal 0 1 -0
    outer loop
      vertex 3.2588 4 0.0340881
      vertex 2.78677 4 1.09044
      vertex 3.34201 4 0.060318
    endloop
  endfacet
  facet normal 0 1 0
    outer loop
      vertex 1.5 4 1
      vertex 0.093689 4 0.577393
      vertex 0.0603027 4 0.65799
    endloop
  endfacet
  facet normal 0 1 -0
    outer loop
      vertex 3.17365 4 0.0151978
      vertex 2.78677 4 1.09044
      vertex 3.2588 4 0.0340881
    endloop
  endfacet
  facet normal 0 1 0
    outer loop
      vertex 1.5 4 1
      vertex 0.133972 4 0.5
      vertex 0.093689 4 0.577393
    endloop
  endfacet
  facet normal 0 1 0
    outer loop
      vertex 2.78677 4 1.09044
      vertex 3.17365 4 0.0151978
      vertex 2.75 4 1.067
    endloop
  endfacet
  facet normal 0 1 0
    outer loop
      vertex 1.5 4 1
      vertex 0.180847 4 0.426437
      vertex 0.133972 4 0.5
    endloop
  endfacet
  facet normal 0 1 -0
    outer loop
      vertex 3.08714 4 0.0038147
      vertex 2.75 4 1.067
      vertex 3.17365 4 0.0151978
    endloop
  endfacet
  facet normal 0 1 0
    outer loop
      vertex 1.5 4 1
      vertex 0.233948 4 0.357224
      vertex 0.180847 4 0.426437
    endloop
  endfacet
  facet normal 0 1 -0
    outer loop
      vertex 3 4 0
      vertex 2.75 4 1.067
      vertex 3.08714 4 0.0038147
    endloop
  endfacet
  facet normal 0 1 0
    outer loop
      vertex 1.5 4 1
      vertex 0.292892 4 0.292908
      vertex 0.233948 4 0.357224
    endloop
  endfacet
  facet normal 0 1 0
    outer loop
      vertex 2.75 4 1.067
      vertex 3 4 0
      vertex 2.7113 4 1.04686
    endloop
  endfacet
  facet normal 0 1 0
    outer loop
      vertex 1.5 4 1
      vertex 0.357208 4 0.233963
      vertex 0.292892 4 0.292908
    endloop
  endfacet
  facet normal 0 1 0
    outer loop
      vertex 2.7113 4 1.04686
      vertex 3 4 0
      vertex 2.67101 4 1.03017
    endloop
  endfacet
  facet normal 0 1 0
    outer loop
      vertex 1.5 4 1
      vertex 0.426422 4 0.180862
      vertex 0.357208 4 0.233963
    endloop
  endfacet
  facet normal 0 1 0
    outer loop
      vertex 2.67101 4 1.03017
      vertex 3 4 0
      vertex 2.62939 4 1.01704
    endloop
  endfacet
  facet normal 0 1 0
    outer loop
      vertex 1.5 4 1
      vertex 0.5 4 0.133987
      vertex 0.426422 4 0.180862
    endloop
  endfacet
  facet normal 0 1 0
    outer loop
      vertex 2.62939 4 1.01704
      vertex 3 4 0
      vertex 2.58682 4 1.0076
    endloop
  endfacet
  facet normal 0 1 0
    outer loop
      vertex 1.5 4 1
      vertex 0.577377 4 0.0937042
      vertex 0.5 4 0.133987
    endloop
  endfacet
  facet normal 0 1 0
    outer loop
      vertex 2.58682 4 1.0076
      vertex 3 4 0
      vertex 2.54356 4 1.00191
    endloop
  endfacet
  facet normal 0 1 0
    outer loop
      vertex 1.5 4 1
      vertex 0.657974 4 0.060318
      vertex 0.577377 4 0.0937042
    endloop
  endfacet
  facet normal 0 1 0
    outer loop
      vertex 2.54356 4 1.00191
      vertex 3 4 0
      vertex 2.5 4 1
    endloop
  endfacet
  facet normal 0 1 0
    outer loop
      vertex 1.5 4 1
      vertex 0.74118 4 0.0340881
      vertex 0.657974 4 0.060318
    endloop
  endfacet
  facet normal 0 1 0
    outer loop
      vertex 1.5 4 1
      vertex 0.82634 4 0.0151978
      vertex 0.74118 4 0.0340881
    endloop
  endfacet
  facet normal 0 1 0
    outer loop
      vertex 1.5 4 1
      vertex 0.912842 4 0.0038147
      vertex 0.82634 4 0.0151978
    endloop
  endfacet
  facet normal 0 1 -0
    outer loop
      vertex 1 4 2.5
      vertex 0 4 4
      vertex 1 4 4
    endloop
  endfacet
  facet normal 0 1 0
    outer loop
      vertex 1 4 1.5
      vertex 1 4 2.5
      vertex 3 4 1.5
    endloop
  endfacet
  facet normal 0 1 0
    outer loop
      vertex 0 4 1
      vertex 1 4 2.5
      vertex 1 4 1.5
    endloop
  endfacet
  facet normal 0 1 0
    outer loop
      vertex 0 4 1
      vertex 1 4 1.5
      vertex 1.00189 4 1.45644
    endloop
  endfacet
  facet normal 0 1 0
    outer loop
      vertex 0 4 1
      vertex 1.00189 4 1.45644
      vertex 1.00758 4 1.41318
    endloop
  endfacet
  facet normal 0 1 0
    outer loop
      vertex 0 4 1
      vertex 1.00758 4 1.41318
      vertex 1.01703 4 1.37061
    endloop
  endfacet
  facet normal 0 1 0
    outer loop
      vertex 0 4 1
      vertex 1.01703 4 1.37061
      vertex 1.03015 4 1.32899
    endloop
  endfacet
  facet normal 0 1 0
    outer loop
      vertex 1 4 2.5
      vertex 0 4 1
      vertex 0 4 4
    endloop
  endfacet
  facet normal 0 1 0
    outer loop
      vertex 1.04684 4 1.2887
      vertex 0 4 1
      vertex 1.03015 4 1.32899
    endloop
  endfacet
  facet normal 0 1 0
    outer loop
      vertex 1.06699 4 1.25
      vertex 0 4 1
      vertex 1.04684 4 1.2887
    endloop
  endfacet
  facet normal 0 1 0
    outer loop
      vertex 1.09042 4 1.21323
      vertex 0 4 1
      vertex 1.06699 4 1.25
    endloop
  endfacet
  facet normal 0 1 0
    outer loop
      vertex 1.11697 4 1.17862
      vertex 0 4 1
      vertex 1.09042 4 1.21323
    endloop
  endfacet
  facet normal 0 1 0
    outer loop
      vertex 1.14644 4 1.14645
      vertex 0 4 1
      vertex 1.11697 4 1.17862
    endloop
  endfacet
  facet normal 0 1 0
    outer loop
      vertex 1.1786 4 1.11699
      vertex 0 4 1
      vertex 1.14644 4 1.14645
    endloop
  endfacet
  facet normal 0 1 0
    outer loop
      vertex 1.21321 4 1.09044
      vertex 0 4 1
      vertex 1.1786 4 1.11699
    endloop
  endfacet
  facet normal 0 1 0
    outer loop
      vertex 1.25 4 1.067
      vertex 0 4 1
      vertex 1.21321 4 1.09044
    endloop
  endfacet
  facet normal 0 1 0
    outer loop
      vertex 1.28868 4 1.04686
      vertex 0 4 1
      vertex 1.25 4 1.067
    endloop
  endfacet
  facet normal 0 1 0
    outer loop
      vertex 1.32898 4 1.03017
      vertex 0 4 1
      vertex 1.28868 4 1.04686
    endloop
  endfacet
  facet normal 0 1 0
    outer loop
      vertex 1.37059 4 1.01704
      vertex 0 4 1
      vertex 1.32898 4 1.03017
    endloop
  endfacet
  facet normal 0 1 0
    outer loop
      vertex 1.41316 4 1.0076
      vertex 0 4 1
      vertex 1.37059 4 1.01704
    endloop
  endfacet
  facet normal 0 1 0
    outer loop
      vertex 1.45642 4 1.00191
      vertex 0 4 1
      vertex 1.41316 4 1.0076
    endloop
  endfacet
  facet normal 0 1 0
    outer loop
      vertex 0 4 1
      vertex 1.45642 4 1.00191
      vertex 1.5 4 1
    endloop
  endfacet
  facet normal -1 0 0
    outer loop
      vertex 0 1 1
      vertex 0 0 1
      vertex 0 1 2.5
    endloop
  endfacet
  facet normal -1 0 0
    outer loop
      vertex 0 4 1
      vertex 0 3 1.5
      vertex 0 4 4
    endloop
  endfacet
  facet normal -1 0 0
    outer loop
      vertex 0 1.9 1
      vertex 0 3 1.5
      vertex 0 4 1
    endloop
  endfacet
  facet normal -1 0 0
    outer loop
      vertex 0 1 2.5
      vertex 0 3 1.5
      vertex 0 1.9 1
    endloop
  endfacet
  facet normal -1 0 0
    outer loop
      vertex 0 3 1.5
      vertex 0 1 2.5
      vertex 0 1.5 4
    endloop
  endfacet
  facet normal -1 0 0
    outer loop
      vertex 0 0 4
      vertex 0 1 2.5
      vertex 0 0 1
    endloop
  endfacet
  facet normal -1 0 0
    outer loop
      vertex 0 1 2.5
      vertex 0 0 4
      vertex 0 1.5 4
    endloop
  endfacet
  facet normal -1 -0 0
    outer loop
      vertex 0 4 4
      vertex 0 3 1.5
      vertex 0 3 4
    endloop
  endfacet
  facet normal 0 -1 0
    outer loop
      vertex 0 0 1
      vertex 1 0 4
      vertex 0 0 4
    endloop
  endfacet
  facet normal 0 -1 0
    outer loop
      vertex 1 0 0
      vertex 0 0 1
      vertex 0.00379944 0 0.912857
    endloop
  endfacet
  facet normal 0 -1 0
    outer loop
      vertex 1 0 0
      vertex 0.00379944 0 0.912857
      vertex 0.0151825 0 0.826355
    endloop
  endfacet
  facet normal 0 -1 0
    outer loop
      vertex 1 0 0
      vertex 0.0151825 0 0.826355
      vertex 0.0340729 0 0.741196
    endloop
  endfacet
  facet normal 0 -1 0
    outer loop
      vertex 1 0 0
      vertex 0.0340729 0 0.741196
      vertex 0.0603027 0 0.65799
    endloop
  endfacet
  facet normal 0 -1 0
    outer loop
      vertex 1 0 0
      vertex 0.0603027 0 0.65799
      vertex 0.093689 0 0.577393
    endloop
  endfacet
  facet normal 0 -1 0
    outer loop
      vertex 1 0 0
      vertex 0.093689 0 0.577393
      vertex 0.133972 0 0.5
    endloop
  endfacet
  facet normal 0 -1 0
    outer loop
      vertex 1 0 0
      vertex 0.133972 0 0.5
      vertex 0.180847 0 0.426437
    endloop
  endfacet
  facet normal 0 -1 0
    outer loop
      vertex 1 0 0
      vertex 0.180847 0 0.426437
      vertex 0.233948 0 0.357224
    endloop
  endfacet
  facet normal 0 -1 0
    outer loop
      vertex 1 0 0
      vertex 0.233948 0 0.357224
      vertex 0.292892 0 0.292908
    endloop
  endfacet
  facet normal 0 -1 0
    outer loop
      vertex 1 0 0
      vertex 0.292892 0 0.292908
      vertex 0.357208 0 0.233963
    endloop
  endfacet
  facet normal 0 -1 0
    outer loop
      vertex 1 0 0
      vertex 0.357208 0 0.233963
      vertex 0.426422 0 0.180862
    endloop
  endfacet
  facet normal 0 -1 0
    outer loop
      vertex 1 0 0
      vertex 0.426422 0 0.180862
      vertex 0.5 0 0.133987
    endloop
  endfacet
  facet normal 0 -1 0
    outer loop
      vertex 1 0 0
      vertex 0.5 0 0.133987
      vertex 0.577377 0 0.0937042
    endloop
  endfacet
  facet normal 0 -1 0
    outer loop
      vertex 1 0 0
      vertex 0.577377 0 0.0937042
      vertex 0.657974 0 0.060318
    endloop
  endfacet
  facet normal 0 -1 0
    outer loop
      vertex 1 0 0
      vertex 0.657974 0 0.060318
      vertex 0.74118 0 0.0340881
    endloop
  endfacet
  facet normal 0 -1 0
    outer loop
      vertex 1 0 0
      vertex 0.74118 0 0.0340881
      vertex 0.82634 0 0.0151978
    endloop
  endfacet
  facet normal 0 -1 0
    outer loop
      vertex 1 0 0
      vertex 0.82634 0 0.0151978
      vertex 0.912842 0 0.0038147
    endloop
  endfacet
  facet normal 0 -1 0
    outer loop
      vertex 0 0 1
      vertex 1 0 0
      vertex 1 0 4
    endloop
  endfacet
  facet normal 0 0.857493 0.514496
    outer loop
      vertex 1 3 1.5
      vertex 0 1.5 4
      vertex 1 1.5 4
    endloop
  endfacet
  facet normal 0 0.857493 0.514496
    outer loop
      vertex 0 1.5 4
      vertex 1 3 1.5
      vertex 0 3 1.5
    endloop
  endfacet
  facet normal 0 1 0
    outer loop
      vertex 1 1 2.5
      vertex 0 1 1
      vertex 0 1 2.5
    endloop
  endfacet
  facet normal 0 1 -0
    outer loop
      vertex 1 1 0
      vertex 0 1 1
      vertex 1 1 2.5
    endloop
  endfacet
  facet normal 0 1 0
    outer loop
      vertex 0 1 1
      vertex 1 1 0
      vertex 0.00379944 1 0.912857
    endloop
  endfacet
  facet normal 0 1 0
    outer loop
      vertex 0.00379944 1 0.912857
      vertex 1 1 0
      vertex 0.0151825 1 0.826355
    endloop
  endfacet
  facet normal 0 1 0
    outer loop
      vertex 0.0151825 1 0.826355
      vertex 1 1 0
      vertex 0.0340729 1 0.741196
    endloop
  endfacet
  facet normal 0 1 0
    outer loop
      vertex 0.0340729 1 0.741196
      vertex 1 1 0
      vertex 0.0603027 1 0.65799
    endloop
  endfacet
  facet normal 0 1 0
    outer loop
      vertex 0.0603027 1 0.65799
      vertex 1 1 0
      vertex 0.093689 1 0.577393
    endloop
  endfacet
  facet normal 0 1 0
    outer loop
      vertex 0.093689 1 0.577393
      vertex 1 1 0
      vertex 0.133972 1 0.5
    endloop
  endfacet
  facet normal 0 1 0
    outer loop
      vertex 0.133972 1 0.5
      vertex 1 1 0
      vertex 0.180847 1 0.426437
    endloop
  endfacet
  facet normal 0 1 0
    outer loop
      vertex 0.180847 1 0.426437
      vertex 1 1 0
      vertex 0.233948 1 0.357224
    endloop
  endfacet
  facet normal 0 1 0
    outer loop
      vertex 0.233948 1 0.357224
      vertex 1 1 0
      vertex 0.292892 1 0.292908
    endloop
  endfacet
  facet normal 0 1 0
    outer loop
      vertex 0.292892 1 0.292908
      vertex 1 1 0
      vertex 0.357208 1 0.233963
    endloop
  endfacet
  facet normal 0 1 0
    outer loop
      vertex 0.357208 1 0.233963
      vertex 1 1 0
      vertex 0.426422 1 0.180862
    endloop
  endfacet
  facet normal 0 1 0
    outer loop
      vertex 0.426422 1 0.180862
      vertex 1 1 0
      vertex 0.5 1 0.133987
    endloop
  endfacet
  facet normal 0 1 0
    outer loop
      vertex 0.5 1 0.133987
      vertex 1 1 0
      vertex 0.577377 1 0.0937042
    endloop
  endfacet
  facet normal 0 1 0
    outer loop
      vertex 0.577377 1 0.0937042
      vertex 1 1 0
      vertex 0.657974 1 0.060318
    endloop
  endfacet
  facet normal 0 1 0
    outer loop
      vertex 0.657974 1 0.060318
      vertex 1 1 0
      vertex 0.74118 1 0.0340881
    endloop
  endfacet
  facet normal 0 1 0
    outer loop
      vertex 0.74118 1 0.0340881
      vertex 1 1 0
      vertex 0.82634 1 0.0151978
    endloop
  endfacet
  facet normal 0 1 0
    outer loop
      vertex 0.82634 1 0.0151978
      vertex 1 1 0
      vertex 0.912842 1 0.0038147
    endloop
  endfacet
  facet normal 0 -0.857493 -0.514496
    outer loop
      vertex 0 1.9 1
      vertex 1 1 2.5
      vertex 0 1 2.5
    endloop
  endfacet
  facet normal -4.32114e-05 -0.857474 -0.514528
    outer loop
      vertex 1 2.5 0
      vertex 0 1.9 1
      vertex 0.00379944 1.95229 0.912857
    endloop
  endfacet
  facet normal 8.28416e-06 -0.857499 -0.514486
    outer loop
      vertex 1 2.5 0
      vertex 0.00379944 1.95229 0.912857
      vertex 0.0151825 2.00419 0.826355
    endloop
  endfacet
  facet normal 5.2852e-05 -0.857522 -0.514447
    outer loop
      vertex 1 2.5 0
      vertex 0.0151825 2.00419 0.826355
      vertex 0.0340729 2.05528 0.741196
    endloop
  endfacet
  facet normal -6.39467e-05 -0.857455 -0.514559
    outer loop
      vertex 1 2.5 0
      vertex 0.0340729 2.05528 0.741196
      vertex 0.0603027 2.10521 0.65799
    endloop
  endfacet
  facet normal 8.091e-05 -0.857546 -0.514407
    outer loop
      vertex 1 2.5 0
      vertex 0.0603027 2.10521 0.65799
      vertex 0.093689 2.15356 0.577393
    endloop
  endfacet
  facet normal -3.84078e-05 -0.857464 -0.514545
    outer loop
      vertex 1 2.5 0
      vertex 0.093689 2.15356 0.577393
      vertex 0.133972 2.2 0.5
    endloop
  endfacet
  facet normal -2.34224e-05 -0.857475 -0.514526
    outer loop
      vertex 1 2.5 0
      vertex 0.133972 2.2 0.5
      vertex 0.180847 2.24414 0.426437
    endloop
  endfacet
  facet normal -2.74585e-05 -0.857472 -0.514531
    outer loop
      vertex 1 2.5 0
      vertex 0.180847 2.24414 0.426437
      vertex 0.233948 2.28567 0.357224
    endloop
  endfacet
  facet normal -1.29438e-05 -0.857485 -0.514508
    outer loop
      vertex 1 2.5 0
      vertex 0.233948 2.28567 0.357224
      vertex 0.292892 2.32426 0.292908
    endloop
  endfacet
  facet normal 6.63558e-05 -0.85757 -0.514368
    outer loop
      vertex 1 2.5 0
      vertex 0.292892 2.32426 0.292908
      vertex 0.357208 2.35962 0.233963
    endloop
  endfacet
  facet normal 1.22942e-05 -0.857504 -0.514477
    outer loop
      vertex 1 2.5 0
      vertex 0.357208 2.35962 0.233963
      vertex 0.426422 2.39148 0.180862
    endloop
  endfacet
  facet normal -4.88133e-05 -0.857419 -0.514619
    outer loop
      vertex 1 2.5 0
      vertex 0.426422 2.39148 0.180862
      vertex 0.5 2.41961 0.133987
    endloop
  endfacet
  facet normal -1.15365e-05 -0.85748 -0.514517
    outer loop
      vertex 1 2.5 0
      vertex 0.5 2.41961 0.133987
      vertex 0.577377 2.44378 0.0937042
    endloop
  endfacet
  facet normal 1.00742e-05 -0.857523 -0.514445
    outer loop
      vertex 1 2.5 0
      vertex 0.577377 2.44378 0.0937042
      vertex 0.657974 2.46381 0.060318
    endloop
  endfacet
  facet normal -3.15069e-05 -0.857419 -0.514619
    outer loop
      vertex 1 2.5 0
      vertex 0.657974 2.46381 0.060318
      vertex 0.74118 2.47955 0.0340881
    endloop
  endfacet
  facet normal 3.81975e-05 -0.857653 -0.51423
    outer loop
      vertex 1 2.5 0
      vertex 0.74118 2.47955 0.0340881
      vertex 0.82634 2.49088 0.0151978
    endloop
  endfacet
  facet normal 1.67041e-05 -0.857544 -0.51441
    outer loop
      vertex 1 2.5 0
      vertex 0.82634 2.49088 0.0151978
      vertex 0.912842 2.49771 0.0038147
    endloop
  endfacet
  facet normal 7.61607e-17 -0.857493 -0.514496
    outer loop
      vertex 0 1.9 1
      vertex 1 2.5 0
      vertex 1 1 2.5
    endloop
  endfacet
  facet normal -0 0 1
    outer loop
      vertex 1 4 2.5
      vertex 3 3 2.5
      vertex 3 4 2.5
    endloop
  endfacet
  facet normal 0 0 1
    outer loop
      vertex 3 3 2.5
      vertex 1 4 2.5
      vertex 1 3 2.5
    endloop
  endfacet
  facet normal -1 0 0
    outer loop
      vertex 3 3 2.5
      vertex 3 4 4
      vertex 3 4 2.5
    endloop
  endfacet
  facet normal -1 -0 0
    outer loop
      vertex 3 4 4
      vertex 3 3 2.5
      vertex 3 3 4
    endloop
  endfacet
  facet normal 0.999046 0 -0.0436795
    outer loop
      vertex 4 3 1
      vertex 3.99619 4 0.912857
      vertex 4 4 1
    endloop
  endfacet
  facet normal 0.999046 0 -0.0436795
    outer loop
      vertex 3.99619 4 0.912857
      vertex 4 3 1
      vertex 3.99619 3 0.912857
    endloop
  endfacet
  facet normal 0.991442 0 -0.130546
    outer loop
      vertex 3.99619 3 0.912857
      vertex 3.9848 4 0.826355
      vertex 3.99619 4 0.912857
    endloop
  endfacet
  facet normal 0.991442 0 -0.130546
    outer loop
      vertex 3.9848 4 0.826355
      vertex 3.99619 3 0.912857
      vertex 3.9848 3 0.826355
    endloop
  endfacet
  facet normal 0.97627 0 -0.216557
    outer loop
      vertex 3.9848 3 0.826355
      vertex 3.96591 4 0.741196
      vertex 3.9848 4 0.826355
    endloop
  endfacet
  facet normal 0.97627 0 -0.216557
    outer loop
      vertex 3.96591 4 0.741196
      vertex 3.9848 3 0.826355
      vertex 3.96591 3 0.741196
    endloop
  endfacet
  facet normal 0.953733 0 -0.300656
    outer loop
      vertex 3.96591 3 0.741196
      vertex 3.93968 4 0.65799
      vertex 3.96591 4 0.741196
    endloop
  endfacet
  facet normal 0.953733 0 -0.300656
    outer loop
      vertex 3.93968 4 0.65799
      vertex 3.96591 3 0.741196
      vertex 3.93968 3 0.65799
    endloop
  endfacet
  facet normal 0.923897 0 -0.382641
    outer loop
      vertex 3.93968 3 0.65799
      vertex 3.9063 4 0.577393
      vertex 3.93968 4 0.65799
    endloop
  endfacet
  facet normal 0.923897 0 -0.382641
    outer loop
      vertex 3.9063 4 0.577393
      vertex 3.93968 3 0.65799
      vertex 3.9063 3 0.577393
    endloop
  endfacet
  facet normal 0.887003 0 -0.461764
    outer loop
      vertex 3.9063 3 0.577393
      vertex 3.86601 4 0.5
      vertex 3.9063 4 0.577393
    endloop
  endfacet
  facet normal 0.887003 0 -0.461764
    outer loop
      vertex 3.86601 4 0.5
      vertex 3.9063 3 0.577393
      vertex 3.86601 3 0.5
    endloop
  endfacet
  facet normal 0.843364 0 -0.537342
    outer loop
      vertex 3.86601 3 0.5
      vertex 3.81914 4 0.426437
      vertex 3.86601 4 0.5
    endloop
  endfacet
  facet normal 0.843364 0 -0.537342
    outer loop
      vertex 3.81914 4 0.426437
      vertex 3.86601 3 0.5
      vertex 3.81914 3 0.426437
    endloop
  endfacet
  facet normal 0.793403 0 -0.608696
    outer loop
      vertex 3.81914 3 0.426437
      vertex 3.76604 4 0.357224
      vertex 3.81914 4 0.426437
    endloop
  endfacet
  facet normal 0.793403 0 -0.608696
    outer loop
      vertex 3.76604 4 0.357224
      vertex 3.81914 3 0.426437
      vertex 3.76604 3 0.357224
    endloop
  endfacet
  facet normal 0.73719 0 -0.675685
    outer loop
      vertex 3.76604 3 0.357224
      vertex 3.70709 4 0.292908
      vertex 3.76604 4 0.357224
    endloop
  endfacet
  facet normal 0.73719 0 -0.675685
    outer loop
      vertex 3.70709 4 0.292908
      vertex 3.76604 3 0.357224
      vertex 3.70709 3 0.292908
    endloop
  endfacet
  facet normal 0.675688 0 -0.737187
    outer loop
      vertex 3.64278 3 0.233963
      vertex 3.70709 4 0.292908
      vertex 3.70709 3 0.292908
    endloop
  endfacet
  facet normal 0.675688 0 -0.737187
    outer loop
      vertex 3.70709 4 0.292908
      vertex 3.64278 3 0.233963
      vertex 3.64278 4 0.233963
    endloop
  endfacet
  facet normal 0.608665 0 -0.793427
    outer loop
      vertex 3.57356 3 0.180862
      vertex 3.64278 4 0.233963
      vertex 3.64278 3 0.233963
    endloop
  endfacet
  facet normal 0.608665 0 -0.793427
    outer loop
      vertex 3.64278 4 0.233963
      vertex 3.57356 3 0.180862
      vertex 3.57356 4 0.180862
    endloop
  endfacet
  facet normal 0.537398 0 -0.843329
    outer loop
      vertex 3.5 3 0.133987
      vertex 3.57356 4 0.180862
      vertex 3.57356 3 0.180862
    endloop
  endfacet
  facet normal 0.537398 0 -0.843329
    outer loop
      vertex 3.57356 4 0.180862
      vertex 3.5 3 0.133987
      vertex 3.5 4 0.133987
    endloop
  endfacet
  facet normal 0.461714 0 -0.887029
    outer loop
      vertex 3.42261 3 0.0937042
      vertex 3.5 4 0.133987
      vertex 3.5 3 0.133987
    endloop
  endfacet
  facet normal 0.461714 0 -0.887029
    outer loop
      vertex 3.5 4 0.133987
      vertex 3.42261 3 0.0937042
      vertex 3.42261 4 0.0937042
    endloop
  endfacet
  facet normal 0.382689 0 -0.923877
    outer loop
      vertex 3.34201 3 0.060318
      vertex 3.42261 4 0.0937042
      vertex 3.42261 3 0.0937042
    endloop
  endfacet
  facet normal 0.382689 0 -0.923877
    outer loop
      vertex 3.42261 4 0.0937042
      vertex 3.34201 3 0.060318
      vertex 3.34201 4 0.060318
    endloop
  endfacet
  facet normal 0.300642 0 -0.953737
    outer loop
      vertex 3.2588 3 0.0340881
      vertex 3.34201 4 0.060318
      vertex 3.34201 3 0.060318
    endloop
  endfacet
  facet normal 0.300642 0 -0.953737
    outer loop
      vertex 3.34201 4 0.060318
      vertex 3.2588 3 0.0340881
      vertex 3.2588 4 0.0340881
    endloop
  endfacet
  facet normal 0.216582 0 -0.976265
    outer loop
      vertex 3.17365 3 0.0151978
      vertex 3.2588 4 0.0340881
      vertex 3.2588 3 0.0340881
    endloop
  endfacet
  facet normal 0.216582 0 -0.976265
    outer loop
      vertex 3.2588 4 0.0340881
      vertex 3.17365 3 0.0151978
      vertex 3.17365 4 0.0151978
    endloop
  endfacet
  facet normal 0.130457 0 -0.991454
    outer loop
      vertex 3.08714 3 0.0038147
      vertex 3.17365 4 0.0151978
      vertex 3.17365 3 0.0151978
    endloop
  endfacet
  facet normal 0.130457 0 -0.991454
    outer loop
      vertex 3.17365 4 0.0151978
      vertex 3.08714 3 0.0038147
      vertex 3.08714 4 0.0038147
    endloop
  endfacet
  facet normal 0.0437348 0 -0.999043
    outer loop
      vertex 3 3 0
      vertex 3.08714 4 0.0038147
      vertex 3.08714 3 0.0038147
    endloop
  endfacet
  facet normal 0.0437348 0 -0.999043
    outer loop
      vertex 3.08714 4 0.0038147
      vertex 3 3 0
      vertex 3 4 0
    endloop
  endfacet
  facet normal -0.0437258 0 -0.999044
    outer loop
      vertex 0.912842 0 0.0038147
      vertex 1 1 0
      vertex 1 0 0
    endloop
  endfacet
  facet normal -0.0437258 0 -0.999044
    outer loop
      vertex 1 1 0
      vertex 0.912842 0 0.0038147
      vertex 0.912842 1 0.0038147
    endloop
  endfacet
  facet normal -0.0437258 0 -0.999044
    outer loop
      vertex 0.912842 2.49771 0.0038147
      vertex 1 3 0
      vertex 1 2.5 0
    endloop
  endfacet
  facet normal -0.0437258 0 -0.999044
    outer loop
      vertex 1 3 0
      vertex 0.912842 2.49771 0.0038147
      vertex 0.912842 4 0.0038147
    endloop
  endfacet
  facet normal -0.0437258 0 -0.999044
    outer loop
      vertex 1 3 0
      vertex 0.912842 4 0.0038147
      vertex 1 4 0
    endloop
  endfacet
  facet normal -0.130469 0 -0.991452
    outer loop
      vertex 0.82634 0 0.0151978
      vertex 0.912842 1 0.0038147
      vertex 0.912842 0 0.0038147
    endloop
  endfacet
  facet normal -0.130469 0 -0.991452
    outer loop
      vertex 0.912842 1 0.0038147
      vertex 0.82634 0 0.0151978
      vertex 0.82634 1 0.0151978
    endloop
  endfacet
  facet normal -0.130469 -0 -0.991452
    outer loop
      vertex 0.82634 4 0.0151978
      vertex 0.912842 2.49771 0.0038147
      vertex 0.82634 2.49088 0.0151978
    endloop
  endfacet
  facet normal -0.130469 0 -0.991452
    outer loop
      vertex 0.912842 2.49771 0.0038147
      vertex 0.82634 4 0.0151978
      vertex 0.912842 4 0.0038147
    endloop
  endfacet
  facet normal -0.216557 0 -0.97627
    outer loop
      vertex 0.74118 0 0.0340881
      vertex 0.82634 1 0.0151978
      vertex 0.82634 0 0.0151978
    endloop
  endfacet
  facet normal -0.216557 0 -0.97627
    outer loop
      vertex 0.82634 1 0.0151978
      vertex 0.74118 0 0.0340881
      vertex 0.74118 1 0.0340881
    endloop
  endfacet
  facet normal -0.216557 -0 -0.97627
    outer loop
      vertex 0.74118 4 0.0340881
      vertex 0.82634 2.49088 0.0151978
      vertex 0.74118 2.47955 0.0340881
    endloop
  endfacet
  facet normal -0.216557 0 -0.97627
    outer loop
      vertex 0.82634 2.49088 0.0151978
      vertex 0.74118 4 0.0340881
      vertex 0.82634 4 0.0151978
    endloop
  endfacet
  facet normal -0.300655 0 -0.953733
    outer loop
      vertex 0.657974 0 0.060318
      vertex 0.74118 1 0.0340881
      vertex 0.74118 0 0.0340881
    endloop
  endfacet
  facet normal -0.300655 0 -0.953733
    outer loop
      vertex 0.74118 1 0.0340881
      vertex 0.657974 0 0.060318
      vertex 0.657974 1 0.060318
    endloop
  endfacet
  facet normal -0.300655 -0 -0.953733
    outer loop
      vertex 0.657974 4 0.060318
      vertex 0.74118 2.47955 0.0340881
      vertex 0.657974 2.46381 0.060318
    endloop
  endfacet
  facet normal -0.300655 0 -0.953733
    outer loop
      vertex 0.74118 2.47955 0.0340881
      vertex 0.657974 4 0.060318
      vertex 0.74118 4 0.0340881
    endloop
  endfacet
  facet normal -0.382701 0 -0.923872
    outer loop
      vertex 0.577377 0 0.0937042
      vertex 0.657974 1 0.060318
      vertex 0.657974 0 0.060318
    endloop
  endfacet
  facet normal -0.382701 0 -0.923872
    outer loop
      vertex 0.657974 1 0.060318
      vertex 0.577377 0 0.0937042
      vertex 0.577377 1 0.0937042
    endloop
  endfacet
  facet normal -0.382701 -0 -0.923872
    outer loop
      vertex 0.577377 4 0.0937042
      vertex 0.657974 2.46381 0.060318
      vertex 0.577377 2.44378 0.0937042
    endloop
  endfacet
  facet normal -0.382701 0 -0.923872
    outer loop
      vertex 0.657974 2.46381 0.060318
      vertex 0.577377 4 0.0937042
      vertex 0.657974 4 0.060318
    endloop
  endfacet
  facet normal -0.461775 0 -0.886997
    outer loop
      vertex 0.5 0 0.133987
      vertex 0.577377 1 0.0937042
      vertex 0.577377 0 0.0937042
    endloop
  endfacet
  facet normal -0.461775 0 -0.886997
    outer loop
      vertex 0.577377 1 0.0937042
      vertex 0.5 0 0.133987
      vertex 0.5 1 0.133987
    endloop
  endfacet
  facet normal -0.461775 -0 -0.886997
    outer loop
      vertex 0.5 4 0.133987
      vertex 0.577377 2.44378 0.0937042
      vertex 0.5 2.41961 0.133987
    endloop
  endfacet
  facet normal -0.461775 0 -0.886997
    outer loop
      vertex 0.577377 2.44378 0.0937042
      vertex 0.5 4 0.133987
      vertex 0.577377 4 0.0937042
    endloop
  endfacet
  facet normal -0.537305 0 -0.843388
    outer loop
      vertex 0.426422 0 0.180862
      vertex 0.5 1 0.133987
      vertex 0.5 0 0.133987
    endloop
  endfacet
  facet normal -0.537305 0 -0.843388
    outer loop
      vertex 0.5 1 0.133987
      vertex 0.426422 0 0.180862
      vertex 0.426422 1 0.180862
    endloop
  endfacet
  facet normal -0.537305 -0 -0.843388
    outer loop
      vertex 0.426422 4 0.180862
      vertex 0.5 2.41961 0.133987
      vertex 0.426422 2.39148 0.180862
    endloop
  endfacet
  facet normal -0.537305 0 -0.843388
    outer loop
      vertex 0.5 2.41961 0.133987
      vertex 0.426422 4 0.180862
      vertex 0.5 4 0.133987
    endloop
  endfacet
  facet normal -0.608698 0 -0.793402
    outer loop
      vertex 0.357208 0 0.233963
      vertex 0.426422 1 0.180862
      vertex 0.426422 0 0.180862
    endloop
  endfacet
  facet normal -0.608698 0 -0.793402
    outer loop
      vertex 0.426422 1 0.180862
      vertex 0.357208 0 0.233963
      vertex 0.357208 1 0.233963
    endloop
  endfacet
  facet normal -0.608698 -0 -0.793402
    outer loop
      vertex 0.357208 4 0.233963
      vertex 0.426422 2.39148 0.180862
      vertex 0.357208 2.35962 0.233963
    endloop
  endfacet
  facet normal -0.608698 0 -0.793402
    outer loop
      vertex 0.426422 2.39148 0.180862
      vertex 0.357208 4 0.233963
      vertex 0.426422 4 0.180862
    endloop
  endfacet
  facet normal -0.675654 0 -0.737219
    outer loop
      vertex 0.292892 0 0.292908
      vertex 0.357208 1 0.233963
      vertex 0.357208 0 0.233963
    endloop
  endfacet
  facet normal -0.675654 0 -0.737219
    outer loop
      vertex 0.357208 1 0.233963
      vertex 0.292892 0 0.292908
      vertex 0.292892 1 0.292908
    endloop
  endfacet
  facet normal -0.675654 -0 -0.737219
    outer loop
      vertex 0.292892 4 0.292908
      vertex 0.357208 2.35962 0.233963
      vertex 0.292892 2.32426 0.292908
    endloop
  endfacet
  facet normal -0.675654 0 -0.737219
    outer loop
      vertex 0.357208 2.35962 0.233963
      vertex 0.292892 4 0.292908
      vertex 0.357208 4 0.233963
    endloop
  endfacet
  facet normal -0.737225 0 -0.675648
    outer loop
      vertex 0.292892 0 0.292908
      vertex 0.233948 1 0.357224
      vertex 0.292892 1 0.292908
    endloop
  endfacet
  facet normal -0.737225 -0 -0.675648
    outer loop
      vertex 0.233948 1 0.357224
      vertex 0.292892 0 0.292908
      vertex 0.233948 0 0.357224
    endloop
  endfacet
  facet normal -0.737225 0 -0.675648
    outer loop
      vertex 0.292892 2.32426 0.292908
      vertex 0.233948 4 0.357224
      vertex 0.292892 4 0.292908
    endloop
  endfacet
  facet normal -0.737225 -0 -0.675648
    outer loop
      vertex 0.233948 4 0.357224
      vertex 0.292892 2.32426 0.292908
      vertex 0.233948 2.28567 0.357224
    endloop
  endfacet
  facet normal -0.793398 0 -0.608704
    outer loop
      vertex 0.233948 0 0.357224
      vertex 0.180847 1 0.426437
      vertex 0.233948 1 0.357224
    endloop
  endfacet
  facet normal -0.793398 -0 -0.608704
    outer loop
      vertex 0.180847 1 0.426437
      vertex 0.233948 0 0.357224
      vertex 0.180847 0 0.426437
    endloop
  endfacet
  facet normal -0.793398 0 -0.608704
    outer loop
      vertex 0.233948 2.28567 0.357224
      vertex 0.180847 4 0.426437
      vertex 0.233948 4 0.357224
    endloop
  endfacet
  facet normal -0.793398 -0 -0.608704
    outer loop
      vertex 0.180847 4 0.426437
      vertex 0.233948 2.28567 0.357224
      vertex 0.180847 2.24414 0.426437
    endloop
  endfacet
  facet normal -0.843338 0 -0.537383
    outer loop
      vertex 0.180847 0 0.426437
      vertex 0.133972 1 0.5
      vertex 0.180847 1 0.426437
    endloop
  endfacet
  facet normal -0.843338 -0 -0.537383
    outer loop
      vertex 0.133972 1 0.5
      vertex 0.180847 0 0.426437
      vertex 0.133972 0 0.5
    endloop
  endfacet
  facet normal -0.843338 0 -0.537383
    outer loop
      vertex 0.180847 2.24414 0.426437
      vertex 0.133972 4 0.5
      vertex 0.180847 4 0.426437
    endloop
  endfacet
  facet normal -0.843338 -0 -0.537383
    outer loop
      vertex 0.133972 4 0.5
      vertex 0.180847 2.24414 0.426437
      vertex 0.133972 2.2 0.5
    endloop
  endfacet
  facet normal -0.887035 0 -0.461701
    outer loop
      vertex 0.133972 0 0.5
      vertex 0.093689 1 0.577393
      vertex 0.133972 1 0.5
    endloop
  endfacet
  facet normal -0.887035 -0 -0.461701
    outer loop
      vertex 0.093689 1 0.577393
      vertex 0.133972 0 0.5
      vertex 0.093689 0 0.577393
    endloop
  endfacet
  facet normal -0.887035 0 -0.461701
    outer loop
      vertex 0.133972 2.2 0.5
      vertex 0.093689 4 0.577393
      vertex 0.133972 4 0.5
    endloop
  endfacet
  facet normal -0.887035 -0 -0.461701
    outer loop
      vertex 0.093689 4 0.577393
      vertex 0.133972 2.2 0.5
      vertex 0.093689 2.15356 0.577393
    endloop
  endfacet
  facet normal -0.923872 0 -0.382702
    outer loop
      vertex 0.093689 0 0.577393
      vertex 0.0603027 1 0.65799
      vertex 0.093689 1 0.577393
    endloop
  endfacet
  facet normal -0.923872 -0 -0.382702
    outer loop
      vertex 0.0603027 1 0.65799
      vertex 0.093689 0 0.577393
      vertex 0.0603027 0 0.65799
    endloop
  endfacet
  facet normal -0.923872 0 -0.382702
    outer loop
      vertex 0.093689 2.15356 0.577393
      vertex 0.0603027 4 0.65799
      vertex 0.093689 4 0.577393
    endloop
  endfacet
  facet normal -0.923872 -0 -0.382702
    outer loop
      vertex 0.0603027 4 0.65799
      vertex 0.093689 2.15356 0.577393
      vertex 0.0603027 2.10521 0.65799
    endloop
  endfacet
  facet normal -0.953733 0 -0.300654
    outer loop
      vertex 0.0603027 0 0.65799
      vertex 0.0340729 1 0.741196
      vertex 0.0603027 1 0.65799
    endloop
  endfacet
  facet normal -0.953733 -0 -0.300654
    outer loop
      vertex 0.0340729 1 0.741196
      vertex 0.0603027 0 0.65799
      vertex 0.0340729 0 0.741196
    endloop
  endfacet
  facet normal -0.953733 0 -0.300654
    outer loop
      vertex 0.0603027 2.10521 0.65799
      vertex 0.0340729 4 0.741196
      vertex 0.0603027 4 0.65799
    endloop
  endfacet
  facet normal -0.953733 -0 -0.300654
    outer loop
      vertex 0.0340729 4 0.741196
      vertex 0.0603027 2.10521 0.65799
      vertex 0.0340729 2.05528 0.741196
    endloop
  endfacet
  facet normal -0.976269 0 -0.216561
    outer loop
      vertex 0.0340729 0 0.741196
      vertex 0.0151825 1 0.826355
      vertex 0.0340729 1 0.741196
    endloop
  endfacet
  facet normal -0.976269 -0 -0.216561
    outer loop
      vertex 0.0151825 1 0.826355
      vertex 0.0340729 0 0.741196
      vertex 0.0151825 0 0.826355
    endloop
  endfacet
  facet normal -0.976269 0 -0.216561
    outer loop
      vertex 0.0340729 2.05528 0.741196
      vertex 0.0151825 4 0.826355
      vertex 0.0340729 4 0.741196
    endloop
  endfacet
  facet normal -0.976269 -0 -0.216561
    outer loop
      vertex 0.0151825 4 0.826355
      vertex 0.0340729 2.05528 0.741196
      vertex 0.0151825 2.00419 0.826355
    endloop
  endfacet
  facet normal -0.991452 0 -0.130468
    outer loop
      vertex 0.0151825 0 0.826355
      vertex 0.00379944 1 0.912857
      vertex 0.0151825 1 0.826355
    endloop
  endfacet
  facet normal -0.991452 -0 -0.130468
    outer loop
      vertex 0.00379944 1 0.912857
      vertex 0.0151825 0 0.826355
      vertex 0.00379944 0 0.912857
    endloop
  endfacet
  facet normal -0.991452 0 -0.130468
    outer loop
      vertex 0.0151825 2.00419 0.826355
      vertex 0.00379944 4 0.912857
      vertex 0.0151825 4 0.826355
    endloop
  endfacet
  facet normal -0.991452 -0 -0.130468
    outer loop
      vertex 0.00379944 4 0.912857
      vertex 0.0151825 2.00419 0.826355
      vertex 0.00379944 1.95229 0.912857
    endloop
  endfacet
  facet normal -0.999051 0 -0.0435587
    outer loop
      vertex 0.00379944 0 0.912857
      vertex 0 1 1
      vertex 0.00379944 1 0.912857
    endloop
  endfacet
  facet normal -0.999051 -0 -0.0435587
    outer loop
      vertex 0 1 1
      vertex 0.00379944 0 0.912857
      vertex 0 0 1
    endloop
  endfacet
  facet normal -0.999051 0 -0.0435587
    outer loop
      vertex 0.00379944 1.95229 0.912857
      vertex 0 4 1
      vertex 0.00379944 4 0.912857
    endloop
  endfacet
  facet normal -0.999051 -0 -0.0435587
    outer loop
      vertex 0 4 1
      vertex 0.00379944 1.95229 0.912857
      vertex 0 1.9 1
    endloop
  endfacet
  facet normal 0.99906 -0 0.0433476
    outer loop
      vertex 1 3 1.5
      vertex 1.00189 4 1.45644
      vertex 1 4 1.5
    endloop
  endfacet
  facet normal 0.99906 0 0.0433476
    outer loop
      vertex 1.00189 4 1.45644
      vertex 1 3 1.5
      vertex 1.00189 3 1.45644
    endloop
  endfacet
  facet normal 0.991461 -0 0.130407
    outer loop
      vertex 1.00189 3 1.45644
      vertex 1.00758 4 1.41318
      vertex 1.00189 4 1.45644
    endloop
  endfacet
  facet normal 0.991461 0 0.130407
    outer loop
      vertex 1.00758 4 1.41318
      vertex 1.00189 3 1.45644
      vertex 1.00758 3 1.41318
    endloop
  endfacet
  facet normal 0.976236 -0 0.216712
    outer loop
      vertex 1.00758 3 1.41318
      vertex 1.01703 4 1.37061
      vertex 1.00758 4 1.41318
    endloop
  endfacet
  facet normal 0.976236 0 0.216712
    outer loop
      vertex 1.01703 4 1.37061
      vertex 1.00758 3 1.41318
      vertex 1.01703 3 1.37061
    endloop
  endfacet
  facet normal 0.953735 -0 0.300649
    outer loop
      vertex 1.01703 3 1.37061
      vertex 1.03015 4 1.32899
      vertex 1.01703 4 1.37061
    endloop
  endfacet
  facet normal 0.953735 0 0.300649
    outer loop
      vertex 1.03015 4 1.32899
      vertex 1.01703 3 1.37061
      vertex 1.03015 3 1.32899
    endloop
  endfacet
  facet normal 0.923869 -0 0.38271
    outer loop
      vertex 1.03015 3 1.32899
      vertex 1.04684 4 1.2887
      vertex 1.03015 4 1.32899
    endloop
  endfacet
  facet normal 0.923869 0 0.38271
    outer loop
      vertex 1.04684 4 1.2887
      vertex 1.03015 3 1.32899
      vertex 1.04684 3 1.2887
    endloop
  endfacet
  facet normal 0.886973 -0 0.461822
    outer loop
      vertex 1.04684 3 1.2887
      vertex 1.06699 4 1.25
      vertex 1.04684 4 1.2887
    endloop
  endfacet
  facet normal 0.886973 0 0.461822
    outer loop
      vertex 1.06699 4 1.25
      vertex 1.04684 3 1.2887
      vertex 1.06699 3 1.25
    endloop
  endfacet
  facet normal 0.84334 -0 0.53738
    outer loop
      vertex 1.06699 3 1.25
      vertex 1.09042 4 1.21323
      vertex 1.06699 4 1.25
    endloop
  endfacet
  facet normal 0.84334 0 0.53738
    outer loop
      vertex 1.09042 4 1.21323
      vertex 1.06699 3 1.25
      vertex 1.09042 3 1.21323
    endloop
  endfacet
  facet normal 0.793433 -0 0.608658
    outer loop
      vertex 1.09042 3 1.21323
      vertex 1.11697 4 1.17862
      vertex 1.09042 4 1.21323
    endloop
  endfacet
  facet normal 0.793433 0 0.608658
    outer loop
      vertex 1.11697 4 1.17862
      vertex 1.09042 3 1.21323
      vertex 1.11697 3 1.17862
    endloop
  endfacet
  facet normal 0.737373 -0 0.675486
    outer loop
      vertex 1.11697 3 1.17862
      vertex 1.14644 4 1.14645
      vertex 1.11697 4 1.17862
    endloop
  endfacet
  facet normal 0.737373 0 0.675486
    outer loop
      vertex 1.14644 4 1.14645
      vertex 1.11697 3 1.17862
      vertex 1.14644 3 1.14645
    endloop
  endfacet
  facet normal 0.675475 0 0.737383
    outer loop
      vertex 1.14644 4 1.14645
      vertex 1.1786 3 1.11699
      vertex 1.1786 4 1.11699
    endloop
  endfacet
  facet normal 0.675475 0 0.737383
    outer loop
      vertex 1.1786 3 1.11699
      vertex 1.14644 4 1.14645
      vertex 1.14644 3 1.14645
    endloop
  endfacet
  facet normal 0.608658 0 0.793433
    outer loop
      vertex 1.1786 4 1.11699
      vertex 1.21321 3 1.09044
      vertex 1.21321 4 1.09044
    endloop
  endfacet
  facet normal 0.608658 0 0.793433
    outer loop
      vertex 1.21321 3 1.09044
      vertex 1.1786 4 1.11699
      vertex 1.1786 3 1.11699
    endloop
  endfacet
  facet normal 0.537335 0 0.843369
    outer loop
      vertex 1.21321 4 1.09044
      vertex 1.25 3 1.067
      vertex 1.25 4 1.067
    endloop
  endfacet
  facet normal 0.537335 0 0.843369
    outer loop
      vertex 1.25 3 1.067
      vertex 1.21321 4 1.09044
      vertex 1.21321 3 1.09044
    endloop
  endfacet
  facet normal 0.461829 0 0.886969
    outer loop
      vertex 1.25 4 1.067
      vertex 1.28868 3 1.04686
      vertex 1.28868 4 1.04686
    endloop
  endfacet
  facet normal 0.461829 0 0.886969
    outer loop
      vertex 1.28868 3 1.04686
      vertex 1.25 4 1.067
      vertex 1.25 3 1.067
    endloop
  endfacet
  facet normal 0.382629 0 0.923902
    outer loop
      vertex 1.28868 4 1.04686
      vertex 1.32898 3 1.03017
      vertex 1.32898 4 1.03017
    endloop
  endfacet
  facet normal 0.382629 0 0.923902
    outer loop
      vertex 1.32898 3 1.03017
      vertex 1.28868 4 1.04686
      vertex 1.28868 3 1.04686
    endloop
  endfacet
  facet normal 0.300923 0 0.953648
    outer loop
      vertex 1.32898 4 1.03017
      vertex 1.37059 3 1.01704
      vertex 1.37059 4 1.01704
    endloop
  endfacet
  facet normal 0.300923 0 0.953648
    outer loop
      vertex 1.37059 3 1.01704
      vertex 1.32898 4 1.03017
      vertex 1.32898 3 1.03017
    endloop
  endfacet
  facet normal 0.216493 0 0.976284
    outer loop
      vertex 1.37059 4 1.01704
      vertex 1.41316 3 1.0076
      vertex 1.41316 4 1.0076
    endloop
  endfacet
  facet normal 0.216493 0 0.976284
    outer loop
      vertex 1.41316 3 1.0076
      vertex 1.37059 4 1.01704
      vertex 1.37059 3 1.01704
    endloop
  endfacet
  facet normal 0.130407 0 0.991461
    outer loop
      vertex 1.41316 4 1.0076
      vertex 1.45642 3 1.00191
      vertex 1.45642 4 1.00191
    endloop
  endfacet
  facet normal 0.130407 0 0.991461
    outer loop
      vertex 1.45642 3 1.00191
      vertex 1.41316 4 1.0076
      vertex 1.41316 3 1.0076
    endloop
  endfacet
  facet normal 0.0437854 0 0.999041
    outer loop
      vertex 1.45642 4 1.00191
      vertex 1.5 3 1
      vertex 1.5 4 1
    endloop
  endfacet
  facet normal 0.0437854 0 0.999041
    outer loop
      vertex 1.5 3 1
      vertex 1.45642 4 1.00191
      vertex 1.45642 3 1.00191
    endloop
  endfacet
  facet normal -0 0 1
    outer loop
      vertex 1.5 4 1
      vertex 2.5 3 1
      vertex 2.5 4 1
    endloop
  endfacet
  facet normal 0 0 1
    outer loop
      vertex 2.5 3 1
      vertex 1.5 4 1
      vertex 1.5 3 1
    endloop
  endfacet
  facet normal -0.0438055 0 0.99904
    outer loop
      vertex 2.5 4 1
      vertex 2.54356 3 1.00191
      vertex 2.54356 4 1.00191
    endloop
  endfacet
  facet normal -0.0438055 0 0.99904
    outer loop
      vertex 2.54356 3 1.00191
      vertex 2.5 4 1
      vertex 2.5 3 1
    endloop
  endfacet
  facet normal -0.130407 0 0.991461
    outer loop
      vertex 2.54356 4 1.00191
      vertex 2.58682 3 1.0076
      vertex 2.58682 4 1.0076
    endloop
  endfacet
  facet normal -0.130407 0 0.991461
    outer loop
      vertex 2.58682 3 1.0076
      vertex 2.54356 4 1.00191
      vertex 2.54356 3 1.00191
    endloop
  endfacet
  facet normal -0.216493 0 0.976284
    outer loop
      vertex 2.58682 4 1.0076
      vertex 2.62939 3 1.01704
      vertex 2.62939 4 1.01704
    endloop
  endfacet
  facet normal -0.216493 0 0.976284
    outer loop
      vertex 2.62939 3 1.01704
      vertex 2.58682 4 1.0076
      vertex 2.58682 3 1.0076
    endloop
  endfacet
  facet normal -0.300857 0 0.953669
    outer loop
      vertex 2.62939 4 1.01704
      vertex 2.67101 3 1.03017
      vertex 2.67101 4 1.03017
    endloop
  endfacet
  facet normal -0.300857 0 0.953669
    outer loop
      vertex 2.67101 3 1.03017
      vertex 2.62939 4 1.01704
      vertex 2.62939 3 1.01704
    endloop
  endfacet
  facet normal -0.38271 0 0.923869
    outer loop
      vertex 2.67101 4 1.03017
      vertex 2.7113 3 1.04686
      vertex 2.7113 4 1.04686
    endloop
  endfacet
  facet normal -0.38271 0 0.923869
    outer loop
      vertex 2.7113 3 1.04686
      vertex 2.67101 4 1.03017
      vertex 2.67101 3 1.03017
    endloop
  endfacet
  facet normal -0.461641 0 0.887067
    outer loop
      vertex 2.7113 4 1.04686
      vertex 2.75 3 1.067
      vertex 2.75 4 1.067
    endloop
  endfacet
  facet normal -0.461641 0 0.887067
    outer loop
      vertex 2.75 3 1.067
      vertex 2.7113 4 1.04686
      vertex 2.7113 3 1.04686
    endloop
  endfacet
  facet normal -0.537543 0 0.843236
    outer loop
      vertex 2.75 4 1.067
      vertex 2.78677 3 1.09044
      vertex 2.78677 4 1.09044
    endloop
  endfacet
  facet normal -0.537543 0 0.843236
    outer loop
      vertex 2.78677 3 1.09044
      vertex 2.75 4 1.067
      vertex 2.75 3 1.067
    endloop
  endfacet
  facet normal -0.608658 0 0.793433
    outer loop
      vertex 2.78677 4 1.09044
      vertex 2.82138 3 1.11699
      vertex 2.82138 4 1.11699
    endloop
  endfacet
  facet normal -0.608658 0 0.793433
    outer loop
      vertex 2.82138 3 1.11699
      vertex 2.78677 4 1.09044
      vertex 2.78677 3 1.09044
    endloop
  endfacet
  facet normal -0.675361 0 0.737487
    outer loop
      vertex 2.82138 4 1.11699
      vertex 2.85355 3 1.14645
      vertex 2.85355 4 1.14645
    endloop
  endfacet
  facet normal -0.675361 0 0.737487
    outer loop
      vertex 2.85355 3 1.14645
      vertex 2.82138 4 1.11699
      vertex 2.82138 3 1.11699
    endloop
  endfacet
  facet normal -0.737487 0 0.675361
    outer loop
      vertex 2.85355 3 1.14645
      vertex 2.88301 4 1.17862
      vertex 2.85355 4 1.14645
    endloop
  endfacet
  facet normal -0.737487 0 0.675361
    outer loop
      vertex 2.88301 4 1.17862
      vertex 2.85355 3 1.14645
      vertex 2.88301 3 1.17862
    endloop
  endfacet
  facet normal -0.793433 0 0.608658
    outer loop
      vertex 2.88301 3 1.17862
      vertex 2.90956 4 1.21323
      vertex 2.88301 4 1.17862
    endloop
  endfacet
  facet normal -0.793433 0 0.608658
    outer loop
      vertex 2.90956 4 1.21323
      vertex 2.88301 3 1.17862
      vertex 2.90956 3 1.21323
    endloop
  endfacet
  facet normal -0.843236 0 0.537543
    outer loop
      vertex 2.90956 3 1.21323
      vertex 2.933 4 1.25
      vertex 2.90956 4 1.21323
    endloop
  endfacet
  facet normal -0.843236 0 0.537543
    outer loop
      vertex 2.933 4 1.25
      vertex 2.90956 3 1.21323
      vertex 2.933 3 1.25
    endloop
  endfacet
  facet normal -0.887067 0 0.461641
    outer loop
      vertex 2.933 3 1.25
      vertex 2.95314 4 1.2887
      vertex 2.933 4 1.25
    endloop
  endfacet
  facet normal -0.887067 0 0.461641
    outer loop
      vertex 2.95314 4 1.2887
      vertex 2.933 3 1.25
      vertex 2.95314 3 1.2887
    endloop
  endfacet
  facet normal -0.923869 0 0.38271
    outer loop
      vertex 2.95314 3 1.2887
      vertex 2.96983 4 1.32899
      vertex 2.95314 4 1.2887
    endloop
  endfacet
  facet normal -0.923869 0 0.38271
    outer loop
      vertex 2.96983 4 1.32899
      vertex 2.95314 3 1.2887
      vertex 2.96983 3 1.32899
    endloop
  endfacet
  facet normal -0.953669 0 0.300857
    outer loop
      vertex 2.96983 3 1.32899
      vertex 2.98296 4 1.37061
      vertex 2.96983 4 1.32899
    endloop
  endfacet
  facet normal -0.953669 0 0.300857
    outer loop
      vertex 2.98296 4 1.37061
      vertex 2.96983 3 1.32899
      vertex 2.98296 3 1.37061
    endloop
  endfacet
  facet normal -0.976284 0 0.216493
    outer loop
      vertex 2.98296 3 1.37061
      vertex 2.9924 4 1.41318
      vertex 2.98296 4 1.37061
    endloop
  endfacet
  facet normal -0.976284 0 0.216493
    outer loop
      vertex 2.9924 4 1.41318
      vertex 2.98296 3 1.37061
      vertex 2.9924 3 1.41318
    endloop
  endfacet
  facet normal -0.991461 0 0.130407
    outer loop
      vertex 2.9924 3 1.41318
      vertex 2.99809 4 1.45644
      vertex 2.9924 4 1.41318
    endloop
  endfacet
  facet normal -0.991461 0 0.130407
    outer loop
      vertex 2.99809 4 1.45644
      vertex 2.9924 3 1.41318
      vertex 2.99809 3 1.45644
    endloop
  endfacet
  facet normal -0.99904 0 0.0438055
    outer loop
      vertex 2.99809 3 1.45644
      vertex 3 4 1.5
      vertex 2.99809 4 1.45644
    endloop
  endfacet
  facet normal -0.99904 0 0.0438055
    outer loop
      vertex 3 4 1.5
      vertex 2.99809 3 1.45644
      vertex 3 3 1.5
    endloop
  endfacet
  facet normal 0 0 -1
    outer loop
      vertex 1 3 1.5
      vertex 3 4 1.5
      vertex 3 3 1.5
    endloop
  endfacet
  facet normal -0 0 -1
    outer loop
      vertex 3 4 1.5
      vertex 1 3 1.5
      vertex 1 4 1.5
    endloop
  endfacet
endsolid OpenSCAD_Model
