solid OpenSCAD_Model
  facet normal 0 0 -1
    outer loop
      vertex 3 0 0
      vertex 4 4 0
      vertex 4 0 0
    endloop
  endfacet
  facet normal -0 0 -1
    outer loop
      vertex 4 4 0
      vertex 3 0 0
      vertex 3 4 0
    endloop
  endfacet
  facet normal 0 0 1
    outer loop
      vertex 4 4 4
      vertex 3 3 4
      vertex 4 0 4
    endloop
  endfacet
  facet normal -0 0 1
    outer loop
      vertex 0 4 4
      vertex 3 3 4
      vertex 4 4 4
    endloop
  endfacet
  facet normal 0 0 1
    outer loop
      vertex 3 3 4
      vertex 0 4 4
      vertex 0 3 4
    endloop
  endfacet
  facet normal 0 0 1
    outer loop
      vertex 4 0 4
      vertex 3 3 4
      vertex 3 0 4
    endloop
  endfacet
  facet normal 0 -1 0
    outer loop
      vertex 0 3 3
      vertex 3 3 4
      vertex 0 3 4
    endloop
  endfacet
  facet normal 0 -1 -0
    outer loop
      vertex 3 3 4
      vertex 0 3 3
      vertex 3 3 3
    endloop
  endfacet
  facet normal -1 0 0
    outer loop
      vertex 3 4 2.75
      vertex 3 3 3
      vertex 3 4 3
    endloop
  endfacet
  facet normal -1 0 0
    outer loop
      vertex 3 2 2
      vertex 3 3 3
      vertex 3 4 2.75
    endloop
  endfacet
  facet normal -1 0 0
    outer loop
      vertex 3 2 3
      vertex 3 3 3
      vertex 3 2 2
    endloop
  endfacet
  facet normal -1 0 0
    outer loop
      vertex 3 3 3
      vertex 3 2 3
      vertex 3 3 4
    endloop
  endfacet
  facet normal -1 0 0
    outer loop
      vertex 3 0 4
      vertex 3 2 3
      vertex 3 0 3
    endloop
  endfacet
  facet normal -1 0 0
    outer loop
      vertex 3 2 3
      vertex 3 0 4
      vertex 3 3 4
    endloop
  endfacet
  facet normal -1 0 0
    outer loop
      vertex 3 4 0
      vertex 3 2 1
      vertex 3 4 1.25
    endloop
  endfacet
  facet normal -1 0 0
    outer loop
      vertex 3 0 0
      vertex 3 2 1
      vertex 3 4 0
    endloop
  endfacet
  facet normal -1 -0 0
    outer loop
      vertex 3 2 1
      vertex 3 0 0
      vertex 3 0 1
    endloop
  endfacet
  facet normal -1 0 0
    outer loop
      vertex 3 2 1
      vertex 3 2 2
      vertex 3 4 1.25
    endloop
  endfacet
  facet normal -1 0 0
    outer loop
      vertex 3 0.5 1.5
      vertex 3 2 2
      vertex 3 2 1
    endloop
  endfacet
  facet normal -1 0 0
    outer loop
      vertex 3 0.5 2.5
      vertex 3 2 2
      vertex 3 0.5 1.5
    endloop
  endfacet
  facet normal -1 0 0
    outer loop
      vertex 3 2 2
      vertex 3 0.5 2.5
      vertex 3 2 3
    endloop
  endfacet
  facet normal 0 -1 0
    outer loop
      vertex 3 0 0
      vertex 4 0 1
      vertex 3 0 1
    endloop
  endfacet
  facet normal 0 -1 -0
    outer loop
      vertex 4 0 1
      vertex 3 0 0
      vertex 4 0 0
    endloop
  endfacet
  facet normal 0 -1 0
    outer loop
      vertex 3 0 3
      vertex 4 0 4
      vertex 3 0 4
    endloop
  endfacet
  facet normal 0 -1 -0
    outer loop
      vertex 4 0 4
      vertex 3 0 3
      vertex 4 0 3
    endloop
  endfacet
  facet normal 1 0 0
    outer loop
      vertex 4 2 1
      vertex 4 4 1.25
      vertex 4 2 2
    endloop
  endfacet
  facet normal 1 0 0
    outer loop
      vertex 4 4 1.25
      vertex 4 2 1
      vertex 4 4 0
    endloop
  endfacet
  facet normal 1 0 0
    outer loop
      vertex 4 0 0
      vertex 4 2 1
      vertex 4 0 1
    endloop
  endfacet
  facet normal 1 0 0
    outer loop
      vertex 4 2 1
      vertex 4 0 0
      vertex 4 4 0
    endloop
  endfacet
  facet normal 1 0 0
    outer loop
      vertex 4 4 4
      vertex 4 2 3
      vertex 4 4 2.75
    endloop
  endfacet
  facet normal 1 -0 0
    outer loop
      vertex 4 0 4
      vertex 4 2 3
      vertex 4 4 4
    endloop
  endfacet
  facet normal 1 0 0
    outer loop
      vertex 4 2 3
      vertex 4 0 4
      vertex 4 0 3
    endloop
  endfacet
  facet normal 1 0 0
    outer loop
      vertex 4 2 3
      vertex 4 2 2
      vertex 4 4 2.75
    endloop
  endfacet
  facet normal 1 -0 0
    outer loop
      vertex 4 0.5 2.5
      vertex 4 2 2
      vertex 4 2 3
    endloop
  endfacet
  facet normal 1 0 0
    outer loop
      vertex 4 0.5 1.5
      vertex 4 2 2
      vertex 4 0.5 2.5
    endloop
  endfacet
  facet normal 1 0 0
    outer loop
      vertex 4 2 2
      vertex 4 0.5 1.5
      vertex 4 2 1
    endloop
  endfacet
  facet normal 0 1 -0
    outer loop
      vertex 4 4 0
      vertex 3 4 1.25
      vertex 4 4 1.25
    endloop
  endfacet
  facet normal 0 1 0
    outer loop
      vertex 3 4 1.25
      vertex 4 4 0
      vertex 3 4 0
    endloop
  endfacet
  facet normal 0 1 0
    outer loop
      vertex 4 4 4
      vertex 3 4 3
      vertex 0 4 4
    endloop
  endfacet
  facet normal 0 1 -0
    outer loop
      vertex 4 4 2.75
      vertex 3 4 3
      vertex 4 4 4
    endloop
  endfacet
  facet normal 0 1 0
    outer loop
      vertex 3 4 3
      vertex 4 4 2.75
      vertex 3 4 2.75
    endloop
  endfacet
  facet normal 0 1 0
    outer loop
      vertex 0 4 4
      vertex 3 4 3
      vertex 0 4 3
    endloop
  endfacet
  facet normal -1 0 0
    outer loop
      vertex 0 3 3
      vertex 0 4 4
      vertex 0 4 3
    endloop
  endfacet
  facet normal -1 -0 0
    outer loop
      vertex 0 4 4
      vertex 0 3 3
      vertex 0 3 4
    endloop
  endfacet
  facet normal 0 -0.316228 0.948683
    outer loop
      vertex 3 2 3
      vertex 4 0.5 2.5
      vertex 4 2 3
    endloop
  endfacet
  facet normal 0 -0.316228 0.948683
    outer loop
      vertex 4 0.5 2.5
      vertex 3 2 3
      vertex 3 0.5 2.5
    endloop
  endfacet
  facet normal 0 -1 0
    outer loop
      vertex 3 0.5 1.5
      vertex 4 0.5 2.5
      vertex 3 0.5 2.5
    endloop
  endfacet
  facet normal 0 -1 -0
    outer loop
      vertex 4 0.5 2.5
      vertex 3 0.5 1.5
      vertex 4 0.5 1.5
    endloop
  endfacet
  facet normal 0 -0.316228 -0.948683
    outer loop
      vertex 3 0.5 1.5
      vertex 4 2 1
      vertex 4 0.5 1.5
    endloop
  endfacet
  facet normal -0 -0.316228 -0.948683
    outer loop
      vertex 4 2 1
      vertex 3 0.5 1.5
      vertex 3 2 1
    endloop
  endfacet
  facet normal -0 0 1
    outer loop
      vertex 3 2 1
      vertex 4 0 1
      vertex 4 2 1
    endloop
  endfacet
  facet normal 0 0 1
    outer loop
      vertex 4 0 1
      vertex 3 2 1
      vertex 3 0 1
    endloop
  endfacet
  facet normal -0 0.351123 0.936329
    outer loop
      vertex 3 4 1.25
      vertex 4 2 2
      vertex 4 4 1.25
    endloop
  endfacet
  facet normal 0 0.351123 0.936329
    outer loop
      vertex 4 2 2
      vertex 3 4 1.25
      vertex 3 2 2
    endloop
  endfacet
  facet normal 0 0.351123 -0.936329
    outer loop
      vertex 3 2 2
      vertex 4 4 2.75
      vertex 4 2 2
    endloop
  endfacet
  facet normal 0 0.351123 -0.936329
    outer loop
      vertex 4 4 2.75
      vertex 3 2 2
      vertex 3 4 2.75
    endloop
  endfacet
  facet normal 0 0 -1
    outer loop
      vertex 3 0 3
      vertex 4 2 3
      vertex 4 0 3
    endloop
  endfacet
  facet normal -0 0 -1
    outer loop
      vertex 4 2 3
      vertex 3 0 3
      vertex 3 2 3
    endloop
  endfacet
  facet normal 0 0 -1
    outer loop
      vertex 0 3 3
      vertex 3 4 3
      vertex 3 3 3
    endloop
  endfacet
  facet normal -0 0 -1
    outer loop
      vertex 3 4 3
      vertex 0 3 3
      vertex 0 4 3
    endloop
  endfacet
endsolid OpenSCAD_Model
