solid OpenSCAD_Model
  facet normal 0 0 -1
    outer loop
      vertex 2.5 3 0
      vertex 3 4 0
      vertex 3 3 0
    endloop
  endfacet
  facet normal 0 0 -1
    outer loop
      vertex 1.5 3 0
      vertex 2.5 3 0
      vertex 1.5 1 0
    endloop
  endfacet
  facet normal 0 0 -1
    outer loop
      vertex 2.5 3 0
      vertex 1.5 3 0
      vertex 3 4 0
    endloop
  endfacet
  facet normal 0 0 -1
    outer loop
      vertex 1 4 0
      vertex 1.5 3 0
      vertex 1 3 0
    endloop
  endfacet
  facet normal 0 0 -1
    outer loop
      vertex 1.5 3 0
      vertex 1 4 0
      vertex 3 4 0
    endloop
  endfacet
  facet normal 0 0 -1
    outer loop
      vertex 3 0 0
      vertex 2.5 1 0
      vertex 3 1 0
    endloop
  endfacet
  facet normal 0 0 -1
    outer loop
      vertex 2.5 1 0
      vertex 1.5 1 0
      vertex 2.5 3 0
    endloop
  endfacet
  facet normal 0 0 -1
    outer loop
      vertex 3 0 0
      vertex 1.5 1 0
      vertex 2.5 1 0
    endloop
  endfacet
  facet normal 0 0 -1
    outer loop
      vertex 1 0 0
      vertex 1.5 1 0
      vertex 3 0 0
    endloop
  endfacet
  facet normal -0 0 -1
    outer loop
      vertex 1.5 1 0
      vertex 1 0 0
      vertex 1 1 0
    endloop
  endfacet
  facet normal -0 0 1
    outer loop
      vertex 0 1 4
      vertex 1 0 4
      vertex 1 1 4
    endloop
  endfacet
  facet normal 0 0 1
    outer loop
      vertex 1 0 4
      vertex 0 1 4
      vertex 0 0 4
    endloop
  endfacet
  facet normal -0 0 1
    outer loop
      vertex 3 1 4
      vertex 4 0 4
      vertex 4 1 4
    endloop
  endfacet
  facet normal 0 0 1
    outer loop
      vertex 4 0 4
      vertex 3 1 4
      vertex 3 0 4
    endloop
  endfacet
  facet normal 1 -0 0
    outer loop
      vertex 2.5 1 1
      vertex 2.5 3 0
      vertex 2.5 3 1
    endloop
  endfacet
  facet normal 1 0 0
    outer loop
      vertex 2.5 3 0
      vertex 2.5 1 1
      vertex 2.5 1 0
    endloop
  endfacet
  facet normal 0 -1 0
    outer loop
      vertex 2.5 3 1
      vertex 3.99619 3 0.912857
      vertex 4 3 1
    endloop
  endfacet
  facet normal 0 -1 0
    outer loop
      vertex 2.5 3 1
      vertex 3.9848 3 0.826355
      vertex 3.99619 3 0.912857
    endloop
  endfacet
  facet normal 0 -1 0
    outer loop
      vertex 2.5 3 1
      vertex 3.96591 3 0.741196
      vertex 3.9848 3 0.826355
    endloop
  endfacet
  facet normal 0 -1 0
    outer loop
      vertex 2.5 3 1
      vertex 3.93968 3 0.65799
      vertex 3.96591 3 0.741196
    endloop
  endfacet
  facet normal 0 -1 0
    outer loop
      vertex 2.5 3 1
      vertex 3.9063 3 0.577393
      vertex 3.93968 3 0.65799
    endloop
  endfacet
  facet normal 0 -1 0
    outer loop
      vertex 2.5 3 1
      vertex 3.86601 3 0.5
      vertex 3.9063 3 0.577393
    endloop
  endfacet
  facet normal 0 -1 0
    outer loop
      vertex 2.5 3 1
      vertex 3.81914 3 0.426437
      vertex 3.86601 3 0.5
    endloop
  endfacet
  facet normal 0 -1 0
    outer loop
      vertex 2.5 3 1
      vertex 3.76604 3 0.357224
      vertex 3.81914 3 0.426437
    endloop
  endfacet
  facet normal 0 -1 0
    outer loop
      vertex 2.5 3 1
      vertex 3.70709 3 0.292908
      vertex 3.76604 3 0.357224
    endloop
  endfacet
  facet normal 0 -1 0
    outer loop
      vertex 2.5 3 1
      vertex 3.64278 3 0.233963
      vertex 3.70709 3 0.292908
    endloop
  endfacet
  facet normal 0 -1 0
    outer loop
      vertex 2.5 3 1
      vertex 3.57356 3 0.180862
      vertex 3.64278 3 0.233963
    endloop
  endfacet
  facet normal 0 -1 0
    outer loop
      vertex 2.5 3 1
      vertex 3.5 3 0.133987
      vertex 3.57356 3 0.180862
    endloop
  endfacet
  facet normal 0 -1 0
    outer loop
      vertex 2.5 3 1
      vertex 3.42261 3 0.0937042
      vertex 3.5 3 0.133987
    endloop
  endfacet
  facet normal 0 -1 0
    outer loop
      vertex 2.5 3 1
      vertex 3.34201 3 0.060318
      vertex 3.42261 3 0.0937042
    endloop
  endfacet
  facet normal 0 -1 0
    outer loop
      vertex 2.5 3 1
      vertex 3.2588 3 0.0340881
      vertex 3.34201 3 0.060318
    endloop
  endfacet
  facet normal 0 -1 0
    outer loop
      vertex 2.5 3 1
      vertex 3.17365 3 0.0151978
      vertex 3.2588 3 0.0340881
    endloop
  endfacet
  facet normal 0 -1 0
    outer loop
      vertex 2.5 3 1
      vertex 3.08714 3 0.0038147
      vertex 3.17365 3 0.0151978
    endloop
  endfacet
  facet normal 0 -1 0
    outer loop
      vertex 3 3 0
      vertex 2.5 3 1
      vertex 2.5 3 0
    endloop
  endfacet
  facet normal 0 -1 0
    outer loop
      vertex 2.5 3 1
      vertex 3 3 0
      vertex 3.08714 3 0.0038147
    endloop
  endfacet
  facet normal 1 -0 0
    outer loop
      vertex 4 0 4
      vertex 4 1 1
      vertex 4 1 4
    endloop
  endfacet
  facet normal 1 0 0
    outer loop
      vertex 4 1 1
      vertex 4 0 4
      vertex 4 0 1
    endloop
  endfacet
  facet normal 0 1 0
    outer loop
      vertex 3 4 0
      vertex 4 4 1
      vertex 3.99619 4 0.912857
    endloop
  endfacet
  facet normal 0 1 0
    outer loop
      vertex 4 4 1
      vertex 3 4 0
      vertex 0 4 1
    endloop
  endfacet
  facet normal 0 1 0
    outer loop
      vertex 3 4 0
      vertex 3.99619 4 0.912857
      vertex 3.9848 4 0.826355
    endloop
  endfacet
  facet normal 0 1 -0
    outer loop
      vertex 1 4 0
      vertex 0 4 1
      vertex 3 4 0
    endloop
  endfacet
  facet normal 0 1 0
    outer loop
      vertex 3 4 0
      vertex 3.9848 4 0.826355
      vertex 3.96591 4 0.741196
    endloop
  endfacet
  facet normal 0 1 0
    outer loop
      vertex 0 4 1
      vertex 1 4 0
      vertex 0.00379944 4 0.912857
    endloop
  endfacet
  facet normal 0 1 0
    outer loop
      vertex 3 4 0
      vertex 3.96591 4 0.741196
      vertex 3.93968 4 0.65799
    endloop
  endfacet
  facet normal 0 1 0
    outer loop
      vertex 0.00379944 4 0.912857
      vertex 1 4 0
      vertex 0.0151825 4 0.826355
    endloop
  endfacet
  facet normal 0 1 0
    outer loop
      vertex 3 4 0
      vertex 3.93968 4 0.65799
      vertex 3.9063 4 0.577393
    endloop
  endfacet
  facet normal 0 1 0
    outer loop
      vertex 0.0151825 4 0.826355
      vertex 1 4 0
      vertex 0.0340729 4 0.741196
    endloop
  endfacet
  facet normal 0 1 0
    outer loop
      vertex 3 4 0
      vertex 3.9063 4 0.577393
      vertex 3.86601 4 0.5
    endloop
  endfacet
  facet normal 0 1 0
    outer loop
      vertex 0.0340729 4 0.741196
      vertex 1 4 0
      vertex 0.0603027 4 0.65799
    endloop
  endfacet
  facet normal 0 1 0
    outer loop
      vertex 3 4 0
      vertex 3.86601 4 0.5
      vertex 3.81914 4 0.426437
    endloop
  endfacet
  facet normal 0 1 0
    outer loop
      vertex 0.0603027 4 0.65799
      vertex 1 4 0
      vertex 0.093689 4 0.577393
    endloop
  endfacet
  facet normal 0 1 0
    outer loop
      vertex 3 4 0
      vertex 3.81914 4 0.426437
      vertex 3.76604 4 0.357224
    endloop
  endfacet
  facet normal 0 1 0
    outer loop
      vertex 0.093689 4 0.577393
      vertex 1 4 0
      vertex 0.133972 4 0.5
    endloop
  endfacet
  facet normal 0 1 0
    outer loop
      vertex 3 4 0
      vertex 3.76604 4 0.357224
      vertex 3.70709 4 0.292908
    endloop
  endfacet
  facet normal 0 1 0
    outer loop
      vertex 0.133972 4 0.5
      vertex 1 4 0
      vertex 0.180847 4 0.426437
    endloop
  endfacet
  facet normal 0 1 0
    outer loop
      vertex 3 4 0
      vertex 3.70709 4 0.292908
      vertex 3.64278 4 0.233963
    endloop
  endfacet
  facet normal 0 1 0
    outer loop
      vertex 0.180847 4 0.426437
      vertex 1 4 0
      vertex 0.233948 4 0.357224
    endloop
  endfacet
  facet normal 0 1 0
    outer loop
      vertex 3 4 0
      vertex 3.64278 4 0.233963
      vertex 3.57356 4 0.180862
    endloop
  endfacet
  facet normal 0 1 0
    outer loop
      vertex 0.233948 4 0.357224
      vertex 1 4 0
      vertex 0.292892 4 0.292908
    endloop
  endfacet
  facet normal 0 1 0
    outer loop
      vertex 3 4 0
      vertex 3.57356 4 0.180862
      vertex 3.5 4 0.133987
    endloop
  endfacet
  facet normal 0 1 0
    outer loop
      vertex 0.292892 4 0.292908
      vertex 1 4 0
      vertex 0.357208 4 0.233963
    endloop
  endfacet
  facet normal 0 1 0
    outer loop
      vertex 3 4 0
      vertex 3.5 4 0.133987
      vertex 3.42261 4 0.0937042
    endloop
  endfacet
  facet normal 0 1 0
    outer loop
      vertex 0.357208 4 0.233963
      vertex 1 4 0
      vertex 0.426422 4 0.180862
    endloop
  endfacet
  facet normal 0 1 0
    outer loop
      vertex 3 4 0
      vertex 3.42261 4 0.0937042
      vertex 3.34201 4 0.060318
    endloop
  endfacet
  facet normal 0 1 0
    outer loop
      vertex 0.426422 4 0.180862
      vertex 1 4 0
      vertex 0.5 4 0.133987
    endloop
  endfacet
  facet normal 0 1 0
    outer loop
      vertex 3 4 0
      vertex 3.34201 4 0.060318
      vertex 3.2588 4 0.0340881
    endloop
  endfacet
  facet normal 0 1 0
    outer loop
      vertex 0.5 4 0.133987
      vertex 1 4 0
      vertex 0.577377 4 0.0937042
    endloop
  endfacet
  facet normal 0 1 0
    outer loop
      vertex 3 4 0
      vertex 3.2588 4 0.0340881
      vertex 3.17365 4 0.0151978
    endloop
  endfacet
  facet normal 0 1 0
    outer loop
      vertex 0.577377 4 0.0937042
      vertex 1 4 0
      vertex 0.657974 4 0.060318
    endloop
  endfacet
  facet normal 0 1 0
    outer loop
      vertex 3 4 0
      vertex 3.17365 4 0.0151978
      vertex 3.08714 4 0.0038147
    endloop
  endfacet
  facet normal 0 1 0
    outer loop
      vertex 0.657974 4 0.060318
      vertex 1 4 0
      vertex 0.74118 4 0.0340881
    endloop
  endfacet
  facet normal 0 1 0
    outer loop
      vertex 0.74118 4 0.0340881
      vertex 1 4 0
      vertex 0.82634 4 0.0151978
    endloop
  endfacet
  facet normal 0 1 0
    outer loop
      vertex 0.82634 4 0.0151978
      vertex 1 4 0
      vertex 0.912842 4 0.0038147
    endloop
  endfacet
  facet normal -1 0 0
    outer loop
      vertex 0 0 1
      vertex 0 1 4
      vertex 0 1 1
    endloop
  endfacet
  facet normal -1 -0 0
    outer loop
      vertex 0 1 4
      vertex 0 0 1
      vertex 0 0 4
    endloop
  endfacet
  facet normal 0 -1 0
    outer loop
      vertex 0.00379944 3 0.912857
      vertex 1.5 3 1
      vertex 0 3 1
    endloop
  endfacet
  facet normal 0 -1 0
    outer loop
      vertex 0.0151825 3 0.826355
      vertex 1.5 3 1
      vertex 0.00379944 3 0.912857
    endloop
  endfacet
  facet normal 0 -1 0
    outer loop
      vertex 0.0340729 3 0.741196
      vertex 1.5 3 1
      vertex 0.0151825 3 0.826355
    endloop
  endfacet
  facet normal 0 -1 0
    outer loop
      vertex 0.0603027 3 0.65799
      vertex 1.5 3 1
      vertex 0.0340729 3 0.741196
    endloop
  endfacet
  facet normal 0 -1 0
    outer loop
      vertex 0.093689 3 0.577393
      vertex 1.5 3 1
      vertex 0.0603027 3 0.65799
    endloop
  endfacet
  facet normal 0 -1 0
    outer loop
      vertex 0.133972 3 0.5
      vertex 1.5 3 1
      vertex 0.093689 3 0.577393
    endloop
  endfacet
  facet normal 0 -1 0
    outer loop
      vertex 0.180847 3 0.426437
      vertex 1.5 3 1
      vertex 0.133972 3 0.5
    endloop
  endfacet
  facet normal 0 -1 0
    outer loop
      vertex 0.233948 3 0.357224
      vertex 1.5 3 1
      vertex 0.180847 3 0.426437
    endloop
  endfacet
  facet normal 0 -1 0
    outer loop
      vertex 0.292892 3 0.292908
      vertex 1.5 3 1
      vertex 0.233948 3 0.357224
    endloop
  endfacet
  facet normal 0 -1 0
    outer loop
      vertex 0.357208 3 0.233963
      vertex 1.5 3 1
      vertex 0.292892 3 0.292908
    endloop
  endfacet
  facet normal 0 -1 0
    outer loop
      vertex 0.426422 3 0.180862
      vertex 1.5 3 1
      vertex 0.357208 3 0.233963
    endloop
  endfacet
  facet normal 0 -1 0
    outer loop
      vertex 0.5 3 0.133987
      vertex 1.5 3 1
      vertex 0.426422 3 0.180862
    endloop
  endfacet
  facet normal 0 -1 0
    outer loop
      vertex 0.577377 3 0.0937042
      vertex 1.5 3 1
      vertex 0.5 3 0.133987
    endloop
  endfacet
  facet normal 0 -1 0
    outer loop
      vertex 0.657974 3 0.060318
      vertex 1.5 3 1
      vertex 0.577377 3 0.0937042
    endloop
  endfacet
  facet normal 0 -1 0
    outer loop
      vertex 0.74118 3 0.0340881
      vertex 1.5 3 1
      vertex 0.657974 3 0.060318
    endloop
  endfacet
  facet normal 0 -1 0
    outer loop
      vertex 0.82634 3 0.0151978
      vertex 1.5 3 1
      vertex 0.74118 3 0.0340881
    endloop
  endfacet
  facet normal 0 -1 0
    outer loop
      vertex 0.912842 3 0.0038147
      vertex 1.5 3 1
      vertex 0.82634 3 0.0151978
    endloop
  endfacet
  facet normal 0 -1 0
    outer loop
      vertex 1 3 0
      vertex 1.5 3 1
      vertex 0.912842 3 0.0038147
    endloop
  endfacet
  facet normal 0 -1 -0
    outer loop
      vertex 1.5 3 1
      vertex 1 3 0
      vertex 1.5 3 0
    endloop
  endfacet
  facet normal -1 0 0
    outer loop
      vertex 1.5 1 0
      vertex 1.5 3 1
      vertex 1.5 3 0
    endloop
  endfacet
  facet normal -1 -0 0
    outer loop
      vertex 1.5 3 1
      vertex 1.5 1 0
      vertex 1.5 1 1
    endloop
  endfacet
  facet normal 0 1 0
    outer loop
      vertex 4 1 4
      vertex 3 1 2.5
      vertex 3 1 4
    endloop
  endfacet
  facet normal 0 1 0
    outer loop
      vertex 3 1 2.5
      vertex 3 1 1.5
      vertex 1 1 2.5
    endloop
  endfacet
  facet normal 0 1 -0
    outer loop
      vertex 4 1 1
      vertex 3 1 2.5
      vertex 4 1 4
    endloop
  endfacet
  facet normal 0 1 0
    outer loop
      vertex 3 1 2.5
      vertex 4 1 1
      vertex 3 1 1.5
    endloop
  endfacet
  facet normal 0 1 0
    outer loop
      vertex 3 1 1.5
      vertex 4 1 1
      vertex 2.99809 1 1.45644
    endloop
  endfacet
  facet normal 0 1 0
    outer loop
      vertex 2.99809 1 1.45644
      vertex 4 1 1
      vertex 2.9924 1 1.41318
    endloop
  endfacet
  facet normal 0 1 0
    outer loop
      vertex 2.9924 1 1.41318
      vertex 4 1 1
      vertex 2.98296 1 1.37061
    endloop
  endfacet
  facet normal 0 1 0
    outer loop
      vertex 2.98296 1 1.37061
      vertex 4 1 1
      vertex 2.96983 1 1.32899
    endloop
  endfacet
  facet normal 0 1 0
    outer loop
      vertex 4 1 1
      vertex 2.95314 1 1.2887
      vertex 2.96983 1 1.32899
    endloop
  endfacet
  facet normal 0 1 0
    outer loop
      vertex 4 1 1
      vertex 2.933 1 1.25
      vertex 2.95314 1 1.2887
    endloop
  endfacet
  facet normal 0 1 -0
    outer loop
      vertex 3.99619 1 0.912857
      vertex 2.933 1 1.25
      vertex 4 1 1
    endloop
  endfacet
  facet normal 0 1 -0
    outer loop
      vertex 3.9848 1 0.826355
      vertex 2.933 1 1.25
      vertex 3.99619 1 0.912857
    endloop
  endfacet
  facet normal 0 1 0
    outer loop
      vertex 2.933 1 1.25
      vertex 3.9848 1 0.826355
      vertex 2.90956 1 1.21323
    endloop
  endfacet
  facet normal 0 1 -0
    outer loop
      vertex 3.96591 1 0.741196
      vertex 2.90956 1 1.21323
      vertex 3.9848 1 0.826355
    endloop
  endfacet
  facet normal 0 1 -0
    outer loop
      vertex 3.93968 1 0.65799
      vertex 2.90956 1 1.21323
      vertex 3.96591 1 0.741196
    endloop
  endfacet
  facet normal 0 1 -0
    outer loop
      vertex 3.9063 1 0.577393
      vertex 2.90956 1 1.21323
      vertex 3.93968 1 0.65799
    endloop
  endfacet
  facet normal 0 1 0
    outer loop
      vertex 2.90956 1 1.21323
      vertex 3.9063 1 0.577393
      vertex 2.88301 1 1.17862
    endloop
  endfacet
  facet normal 0 1 -0
    outer loop
      vertex 3.86601 1 0.5
      vertex 2.88301 1 1.17862
      vertex 3.9063 1 0.577393
    endloop
  endfacet
  facet normal 0 1 -0
    outer loop
      vertex 3.81914 1 0.426437
      vertex 2.88301 1 1.17862
      vertex 3.86601 1 0.5
    endloop
  endfacet
  facet normal 0 1 0
    outer loop
      vertex 2.88301 1 1.17862
      vertex 3.81914 1 0.426437
      vertex 2.85355 1 1.14645
    endloop
  endfacet
  facet normal 0 1 -0
    outer loop
      vertex 3.76604 1 0.357224
      vertex 2.85355 1 1.14645
      vertex 3.81914 1 0.426437
    endloop
  endfacet
  facet normal 0 1 -0
    outer loop
      vertex 3.70709 1 0.292908
      vertex 2.85355 1 1.14645
      vertex 3.76604 1 0.357224
    endloop
  endfacet
  facet normal 0 1 -0
    outer loop
      vertex 3.64278 1 0.233963
      vertex 2.85355 1 1.14645
      vertex 3.70709 1 0.292908
    endloop
  endfacet
  facet normal 0 1 0
    outer loop
      vertex 2.85355 1 1.14645
      vertex 3.64278 1 0.233963
      vertex 2.82138 1 1.11699
    endloop
  endfacet
  facet normal 0 1 -0
    outer loop
      vertex 3.57356 1 0.180862
      vertex 2.82138 1 1.11699
      vertex 3.64278 1 0.233963
    endloop
  endfacet
  facet normal 0 1 -0
    outer loop
      vertex 3.5 1 0.133987
      vertex 2.82138 1 1.11699
      vertex 3.57356 1 0.180862
    endloop
  endfacet
  facet normal 0 1 -0
    outer loop
      vertex 3.42261 1 0.0937042
      vertex 2.82138 1 1.11699
      vertex 3.5 1 0.133987
    endloop
  endfacet
  facet normal 0 1 0
    outer loop
      vertex 2.82138 1 1.11699
      vertex 3.42261 1 0.0937042
      vertex 2.78677 1 1.09044
    endloop
  endfacet
  facet normal 0 1 -0
    outer loop
      vertex 3.34201 1 0.060318
      vertex 2.78677 1 1.09044
      vertex 3.42261 1 0.0937042
    endloop
  endfacet
  facet normal 0 1 -0
    outer loop
      vertex 3.2588 1 0.0340881
      vertex 2.78677 1 1.09044
      vertex 3.34201 1 0.060318
    endloop
  endfacet
  facet normal 0 1 -0
    outer loop
      vertex 3.17365 1 0.0151978
      vertex 2.78677 1 1.09044
      vertex 3.2588 1 0.0340881
    endloop
  endfacet
  facet normal 0 1 0
    outer loop
      vertex 2.78677 1 1.09044
      vertex 3.17365 1 0.0151978
      vertex 2.75 1 1.067
    endloop
  endfacet
  facet normal 0 1 -0
    outer loop
      vertex 3.08714 1 0.0038147
      vertex 2.75 1 1.067
      vertex 3.17365 1 0.0151978
    endloop
  endfacet
  facet normal 0 1 -0
    outer loop
      vertex 3 1 0
      vertex 2.75 1 1.067
      vertex 3.08714 1 0.0038147
    endloop
  endfacet
  facet normal 0 1 0
    outer loop
      vertex 2.75 1 1.067
      vertex 3 1 0
      vertex 2.7113 1 1.04686
    endloop
  endfacet
  facet normal 0 1 0
    outer loop
      vertex 2.7113 1 1.04686
      vertex 3 1 0
      vertex 2.67101 1 1.03017
    endloop
  endfacet
  facet normal 0 1 0
    outer loop
      vertex 2.67101 1 1.03017
      vertex 3 1 0
      vertex 2.62939 1 1.01704
    endloop
  endfacet
  facet normal 0 1 0
    outer loop
      vertex 2.5 1 0
      vertex 2.62939 1 1.01704
      vertex 3 1 0
    endloop
  endfacet
  facet normal 0 1 0
    outer loop
      vertex 2.62939 1 1.01704
      vertex 2.5 1 0
      vertex 2.58682 1 1.0076
    endloop
  endfacet
  facet normal 0 1 0
    outer loop
      vertex 2.58682 1 1.0076
      vertex 2.5 1 0
      vertex 2.54356 1 1.00191
    endloop
  endfacet
  facet normal 0 1 0
    outer loop
      vertex 2.54356 1 1.00191
      vertex 2.5 1 0
      vertex 2.5 1 1
    endloop
  endfacet
  facet normal 0 1 -0
    outer loop
      vertex 1 1 2.5
      vertex 0 1 4
      vertex 1 1 4
    endloop
  endfacet
  facet normal 0 1 0
    outer loop
      vertex 1 1 1.5
      vertex 1 1 2.5
      vertex 3 1 1.5
    endloop
  endfacet
  facet normal 0 1 0
    outer loop
      vertex 0 1 1
      vertex 1 1 2.5
      vertex 1 1 1.5
    endloop
  endfacet
  facet normal 0 1 0
    outer loop
      vertex 0 1 1
      vertex 1 1 1.5
      vertex 1.00189 1 1.45644
    endloop
  endfacet
  facet normal 0 1 0
    outer loop
      vertex 0 1 1
      vertex 1.00189 1 1.45644
      vertex 1.00758 1 1.41318
    endloop
  endfacet
  facet normal 0 1 0
    outer loop
      vertex 0 1 1
      vertex 1.00758 1 1.41318
      vertex 1.01703 1 1.37061
    endloop
  endfacet
  facet normal 0 1 0
    outer loop
      vertex 0 1 1
      vertex 1.01703 1 1.37061
      vertex 1.03015 1 1.32899
    endloop
  endfacet
  facet normal 0 1 0
    outer loop
      vertex 1 1 2.5
      vertex 0 1 1
      vertex 0 1 4
    endloop
  endfacet
  facet normal 0 1 0
    outer loop
      vertex 1.04684 1 1.2887
      vertex 0 1 1
      vertex 1.03015 1 1.32899
    endloop
  endfacet
  facet normal 0 1 0
    outer loop
      vertex 1.06699 1 1.25
      vertex 0 1 1
      vertex 1.04684 1 1.2887
    endloop
  endfacet
  facet normal 0 1 0
    outer loop
      vertex 0.0151825 1 0.826355
      vertex 1.06699 1 1.25
      vertex 1.09042 1 1.21323
    endloop
  endfacet
  facet normal 0 1 0
    outer loop
      vertex 0.093689 1 0.577393
      vertex 1.09042 1 1.21323
      vertex 1.11697 1 1.17862
    endloop
  endfacet
  facet normal 0 1 0
    outer loop
      vertex 0.180847 1 0.426437
      vertex 1.11697 1 1.17862
      vertex 1.14644 1 1.14645
    endloop
  endfacet
  facet normal 0 1 0
    outer loop
      vertex 0.357208 1 0.233963
      vertex 1.14644 1 1.14645
      vertex 1.1786 1 1.11699
    endloop
  endfacet
  facet normal 0 1 0
    outer loop
      vertex 0.577377 1 0.0937042
      vertex 1.1786 1 1.11699
      vertex 1.21321 1 1.09044
    endloop
  endfacet
  facet normal 0 1 0
    outer loop
      vertex 0.82634 1 0.0151978
      vertex 1.21321 1 1.09044
      vertex 1.25 1 1.067
    endloop
  endfacet
  facet normal 0 1 0
    outer loop
      vertex 1 1 0
      vertex 1.25 1 1.067
      vertex 1.28868 1 1.04686
    endloop
  endfacet
  facet normal 0 1 0
    outer loop
      vertex 1 1 0
      vertex 1.28868 1 1.04686
      vertex 1.32898 1 1.03017
    endloop
  endfacet
  facet normal 0 1 0
    outer loop
      vertex 1 1 0
      vertex 1.32898 1 1.03017
      vertex 1.37059 1 1.01704
    endloop
  endfacet
  facet normal 0 1 0
    outer loop
      vertex 1.5 1 0
      vertex 1.37059 1 1.01704
      vertex 1.41316 1 1.0076
    endloop
  endfacet
  facet normal 0 1 0
    outer loop
      vertex 1.5 1 0
      vertex 1.41316 1 1.0076
      vertex 1.45642 1 1.00191
    endloop
  endfacet
  facet normal 0 1 -0
    outer loop
      vertex 1.5 1 0
      vertex 1.45642 1 1.00191
      vertex 1.5 1 1
    endloop
  endfacet
  facet normal 0 1 0
    outer loop
      vertex 1.06699 1 1.25
      vertex 0.00379944 1 0.912857
      vertex 0 1 1
    endloop
  endfacet
  facet normal 0 1 0
    outer loop
      vertex 1.06699 1 1.25
      vertex 0.0151825 1 0.826355
      vertex 0.00379944 1 0.912857
    endloop
  endfacet
  facet normal 0 1 0
    outer loop
      vertex 1.09042 1 1.21323
      vertex 0.0340729 1 0.741196
      vertex 0.0151825 1 0.826355
    endloop
  endfacet
  facet normal 0 1 0
    outer loop
      vertex 1.09042 1 1.21323
      vertex 0.0603027 1 0.65799
      vertex 0.0340729 1 0.741196
    endloop
  endfacet
  facet normal 0 1 0
    outer loop
      vertex 1.09042 1 1.21323
      vertex 0.093689 1 0.577393
      vertex 0.0603027 1 0.65799
    endloop
  endfacet
  facet normal 0 1 0
    outer loop
      vertex 1.11697 1 1.17862
      vertex 0.133972 1 0.5
      vertex 0.093689 1 0.577393
    endloop
  endfacet
  facet normal 0 1 0
    outer loop
      vertex 1.11697 1 1.17862
      vertex 0.180847 1 0.426437
      vertex 0.133972 1 0.5
    endloop
  endfacet
  facet normal 0 1 0
    outer loop
      vertex 1.14644 1 1.14645
      vertex 0.233948 1 0.357224
      vertex 0.180847 1 0.426437
    endloop
  endfacet
  facet normal 0 1 0
    outer loop
      vertex 1.14644 1 1.14645
      vertex 0.292892 1 0.292908
      vertex 0.233948 1 0.357224
    endloop
  endfacet
  facet normal 0 1 0
    outer loop
      vertex 1.14644 1 1.14645
      vertex 0.357208 1 0.233963
      vertex 0.292892 1 0.292908
    endloop
  endfacet
  facet normal 0 1 0
    outer loop
      vertex 1.1786 1 1.11699
      vertex 0.426422 1 0.180862
      vertex 0.357208 1 0.233963
    endloop
  endfacet
  facet normal 0 1 0
    outer loop
      vertex 1.1786 1 1.11699
      vertex 0.5 1 0.133987
      vertex 0.426422 1 0.180862
    endloop
  endfacet
  facet normal 0 1 0
    outer loop
      vertex 1.1786 1 1.11699
      vertex 0.577377 1 0.0937042
      vertex 0.5 1 0.133987
    endloop
  endfacet
  facet normal 0 1 0
    outer loop
      vertex 1.21321 1 1.09044
      vertex 0.657974 1 0.060318
      vertex 0.577377 1 0.0937042
    endloop
  endfacet
  facet normal 0 1 0
    outer loop
      vertex 1.21321 1 1.09044
      vertex 0.74118 1 0.0340881
      vertex 0.657974 1 0.060318
    endloop
  endfacet
  facet normal 0 1 0
    outer loop
      vertex 1.21321 1 1.09044
      vertex 0.82634 1 0.0151978
      vertex 0.74118 1 0.0340881
    endloop
  endfacet
  facet normal 0 1 0
    outer loop
      vertex 1.25 1 1.067
      vertex 0.912842 1 0.0038147
      vertex 0.82634 1 0.0151978
    endloop
  endfacet
  facet normal 0 1 0
    outer loop
      vertex 1.37059 1 1.01704
      vertex 1.5 1 0
      vertex 1 1 0
    endloop
  endfacet
  facet normal 0 1 0
    outer loop
      vertex 1.25 1 1.067
      vertex 1 1 0
      vertex 0.912842 1 0.0038147
    endloop
  endfacet
  facet normal 0 -1 0
    outer loop
      vertex 0 0 4
      vertex 1 0 2.5
      vertex 1 0 4
    endloop
  endfacet
  facet normal 0 -1 0
    outer loop
      vertex 1 0 2.5
      vertex 1 0 1.5
      vertex 3 0 2.5
    endloop
  endfacet
  facet normal 0 -1 0
    outer loop
      vertex 0 0 1
      vertex 1 0 2.5
      vertex 0 0 4
    endloop
  endfacet
  facet normal 0 -1 -0
    outer loop
      vertex 1 0 2.5
      vertex 0 0 1
      vertex 1 0 1.5
    endloop
  endfacet
  facet normal 0 -1 -0
    outer loop
      vertex 1 0 1.5
      vertex 0 0 1
      vertex 1.00189 0 1.45644
    endloop
  endfacet
  facet normal 0 -1 -0
    outer loop
      vertex 1.00189 0 1.45644
      vertex 0 0 1
      vertex 1.00758 0 1.41318
    endloop
  endfacet
  facet normal 0 -1 -0
    outer loop
      vertex 1.00758 0 1.41318
      vertex 0 0 1
      vertex 1.01703 0 1.37061
    endloop
  endfacet
  facet normal 0 -1 -0
    outer loop
      vertex 1.01703 0 1.37061
      vertex 0 0 1
      vertex 1.03015 0 1.32899
    endloop
  endfacet
  facet normal 0 -1 0
    outer loop
      vertex 0 0 1
      vertex 1.04684 0 1.2887
      vertex 1.03015 0 1.32899
    endloop
  endfacet
  facet normal 0 -1 0
    outer loop
      vertex 0 0 1
      vertex 1.06699 0 1.25
      vertex 1.04684 0 1.2887
    endloop
  endfacet
  facet normal 0 -1 0
    outer loop
      vertex 0.00379944 0 0.912857
      vertex 1.06699 0 1.25
      vertex 0 0 1
    endloop
  endfacet
  facet normal 0 -1 0
    outer loop
      vertex 0.0151825 0 0.826355
      vertex 1.06699 0 1.25
      vertex 0.00379944 0 0.912857
    endloop
  endfacet
  facet normal 0 -1 -0
    outer loop
      vertex 1.06699 0 1.25
      vertex 0.0151825 0 0.826355
      vertex 1.09042 0 1.21323
    endloop
  endfacet
  facet normal 0 -1 0
    outer loop
      vertex 0.0340729 0 0.741196
      vertex 1.09042 0 1.21323
      vertex 0.0151825 0 0.826355
    endloop
  endfacet
  facet normal 0 -1 0
    outer loop
      vertex 0.0603027 0 0.65799
      vertex 1.09042 0 1.21323
      vertex 0.0340729 0 0.741196
    endloop
  endfacet
  facet normal 0 -1 0
    outer loop
      vertex 0.093689 0 0.577393
      vertex 1.09042 0 1.21323
      vertex 0.0603027 0 0.65799
    endloop
  endfacet
  facet normal 0 -1 -0
    outer loop
      vertex 1.09042 0 1.21323
      vertex 0.093689 0 0.577393
      vertex 1.11697 0 1.17862
    endloop
  endfacet
  facet normal 0 -1 0
    outer loop
      vertex 0.133972 0 0.5
      vertex 1.11697 0 1.17862
      vertex 0.093689 0 0.577393
    endloop
  endfacet
  facet normal 0 -1 0
    outer loop
      vertex 0.180847 0 0.426437
      vertex 1.11697 0 1.17862
      vertex 0.133972 0 0.5
    endloop
  endfacet
  facet normal 0 -1 -0
    outer loop
      vertex 1.11697 0 1.17862
      vertex 0.180847 0 0.426437
      vertex 1.14644 0 1.14645
    endloop
  endfacet
  facet normal 0 -1 0
    outer loop
      vertex 0.233948 0 0.357224
      vertex 1.14644 0 1.14645
      vertex 0.180847 0 0.426437
    endloop
  endfacet
  facet normal 0 -1 0
    outer loop
      vertex 0.292892 0 0.292908
      vertex 1.14644 0 1.14645
      vertex 0.233948 0 0.357224
    endloop
  endfacet
  facet normal 0 -1 0
    outer loop
      vertex 0.357208 0 0.233963
      vertex 1.14644 0 1.14645
      vertex 0.292892 0 0.292908
    endloop
  endfacet
  facet normal 0 -1 -0
    outer loop
      vertex 1.5 0 1
      vertex 1 0 0
      vertex 2.5 0 1
    endloop
  endfacet
  facet normal 0 -1 -0
    outer loop
      vertex 1.14644 0 1.14645
      vertex 0.357208 0 0.233963
      vertex 1.1786 0 1.11699
    endloop
  endfacet
  facet normal 0 -1 0
    outer loop
      vertex 3 0 0
      vertex 2.5 0 1
      vertex 1 0 0
    endloop
  endfacet
  facet normal 0 -1 0
    outer loop
      vertex 0.426422 0 0.180862
      vertex 1.1786 0 1.11699
      vertex 0.357208 0 0.233963
    endloop
  endfacet
  facet normal -0 -1 0
    outer loop
      vertex 3.08714 0 0.0038147
      vertex 2.5 0 1
      vertex 3 0 0
    endloop
  endfacet
  facet normal 0 -1 0
    outer loop
      vertex 0.5 0 0.133987
      vertex 1.1786 0 1.11699
      vertex 0.426422 0 0.180862
    endloop
  endfacet
  facet normal 0 -1 0
    outer loop
      vertex 2.5 0 1
      vertex 3.99619 0 0.912857
      vertex 4 0 1
    endloop
  endfacet
  facet normal 0 -1 0
    outer loop
      vertex 0.577377 0 0.0937042
      vertex 1.1786 0 1.11699
      vertex 0.5 0 0.133987
    endloop
  endfacet
  facet normal 0 -1 0
    outer loop
      vertex 2.5 0 1
      vertex 3.9848 0 0.826355
      vertex 3.99619 0 0.912857
    endloop
  endfacet
  facet normal 0 -1 -0
    outer loop
      vertex 1.1786 0 1.11699
      vertex 0.577377 0 0.0937042
      vertex 1.21321 0 1.09044
    endloop
  endfacet
  facet normal 0 -1 0
    outer loop
      vertex 2.5 0 1
      vertex 3.96591 0 0.741196
      vertex 3.9848 0 0.826355
    endloop
  endfacet
  facet normal 0 -1 0
    outer loop
      vertex 0.657974 0 0.060318
      vertex 1.21321 0 1.09044
      vertex 0.577377 0 0.0937042
    endloop
  endfacet
  facet normal 0 -1 0
    outer loop
      vertex 2.5 0 1
      vertex 3.93968 0 0.65799
      vertex 3.96591 0 0.741196
    endloop
  endfacet
  facet normal 0 -1 0
    outer loop
      vertex 0.74118 0 0.0340881
      vertex 1.21321 0 1.09044
      vertex 0.657974 0 0.060318
    endloop
  endfacet
  facet normal 0 -1 0
    outer loop
      vertex 2.5 0 1
      vertex 3.9063 0 0.577393
      vertex 3.93968 0 0.65799
    endloop
  endfacet
  facet normal 0 -1 0
    outer loop
      vertex 0.82634 0 0.0151978
      vertex 1.21321 0 1.09044
      vertex 0.74118 0 0.0340881
    endloop
  endfacet
  facet normal 0 -1 0
    outer loop
      vertex 2.5 0 1
      vertex 3.86601 0 0.5
      vertex 3.9063 0 0.577393
    endloop
  endfacet
  facet normal 0 -1 -0
    outer loop
      vertex 1.21321 0 1.09044
      vertex 0.82634 0 0.0151978
      vertex 1.25 0 1.067
    endloop
  endfacet
  facet normal 0 -1 0
    outer loop
      vertex 2.5 0 1
      vertex 3.81914 0 0.426437
      vertex 3.86601 0 0.5
    endloop
  endfacet
  facet normal 0 -1 0
    outer loop
      vertex 0.912842 0 0.0038147
      vertex 1.25 0 1.067
      vertex 0.82634 0 0.0151978
    endloop
  endfacet
  facet normal 0 -1 0
    outer loop
      vertex 2.5 0 1
      vertex 3.76604 0 0.357224
      vertex 3.81914 0 0.426437
    endloop
  endfacet
  facet normal 0 -1 0
    outer loop
      vertex 1 0 0
      vertex 1.25 0 1.067
      vertex 0.912842 0 0.0038147
    endloop
  endfacet
  facet normal 0 -1 0
    outer loop
      vertex 2.5 0 1
      vertex 3.70709 0 0.292908
      vertex 3.76604 0 0.357224
    endloop
  endfacet
  facet normal 0 -1 -0
    outer loop
      vertex 1.25 0 1.067
      vertex 1 0 0
      vertex 1.28868 0 1.04686
    endloop
  endfacet
  facet normal 0 -1 0
    outer loop
      vertex 2.5 0 1
      vertex 3.64278 0 0.233963
      vertex 3.70709 0 0.292908
    endloop
  endfacet
  facet normal 0 -1 -0
    outer loop
      vertex 1.28868 0 1.04686
      vertex 1 0 0
      vertex 1.32898 0 1.03017
    endloop
  endfacet
  facet normal 0 -1 0
    outer loop
      vertex 2.5 0 1
      vertex 3.57356 0 0.180862
      vertex 3.64278 0 0.233963
    endloop
  endfacet
  facet normal 0 -1 -0
    outer loop
      vertex 1.32898 0 1.03017
      vertex 1 0 0
      vertex 1.37059 0 1.01704
    endloop
  endfacet
  facet normal 0 -1 0
    outer loop
      vertex 2.5 0 1
      vertex 3.5 0 0.133987
      vertex 3.57356 0 0.180862
    endloop
  endfacet
  facet normal 0 -1 -0
    outer loop
      vertex 1.37059 0 1.01704
      vertex 1 0 0
      vertex 1.41316 0 1.0076
    endloop
  endfacet
  facet normal 0 -1 0
    outer loop
      vertex 2.5 0 1
      vertex 3.42261 0 0.0937042
      vertex 3.5 0 0.133987
    endloop
  endfacet
  facet normal 0 -1 -0
    outer loop
      vertex 1.41316 0 1.0076
      vertex 1 0 0
      vertex 1.45642 0 1.00191
    endloop
  endfacet
  facet normal 0 -1 0
    outer loop
      vertex 2.5 0 1
      vertex 3.34201 0 0.060318
      vertex 3.42261 0 0.0937042
    endloop
  endfacet
  facet normal 0 -1 -0
    outer loop
      vertex 1.45642 0 1.00191
      vertex 1 0 0
      vertex 1.5 0 1
    endloop
  endfacet
  facet normal 0 -1 0
    outer loop
      vertex 2.5 0 1
      vertex 3.2588 0 0.0340881
      vertex 3.34201 0 0.060318
    endloop
  endfacet
  facet normal 0 -1 0
    outer loop
      vertex 2.5 0 1
      vertex 3.17365 0 0.0151978
      vertex 3.2588 0 0.0340881
    endloop
  endfacet
  facet normal 0 -1 0
    outer loop
      vertex 2.5 0 1
      vertex 3.08714 0 0.0038147
      vertex 3.17365 0 0.0151978
    endloop
  endfacet
  facet normal 0 -1 0
    outer loop
      vertex 3 0 2.5
      vertex 4 0 4
      vertex 3 0 4
    endloop
  endfacet
  facet normal 0 -1 0
    outer loop
      vertex 3 0 1.5
      vertex 3 0 2.5
      vertex 1 0 1.5
    endloop
  endfacet
  facet normal 0 -1 0
    outer loop
      vertex 4 0 1
      vertex 3 0 2.5
      vertex 3 0 1.5
    endloop
  endfacet
  facet normal 0 -1 0
    outer loop
      vertex 4 0 1
      vertex 3 0 1.5
      vertex 2.99809 0 1.45644
    endloop
  endfacet
  facet normal 0 -1 0
    outer loop
      vertex 4 0 1
      vertex 2.99809 0 1.45644
      vertex 2.9924 0 1.41318
    endloop
  endfacet
  facet normal 0 -1 0
    outer loop
      vertex 4 0 1
      vertex 2.9924 0 1.41318
      vertex 2.98296 0 1.37061
    endloop
  endfacet
  facet normal 0 -1 0
    outer loop
      vertex 4 0 1
      vertex 2.98296 0 1.37061
      vertex 2.96983 0 1.32899
    endloop
  endfacet
  facet normal 0 -1 0
    outer loop
      vertex 3 0 2.5
      vertex 4 0 1
      vertex 4 0 4
    endloop
  endfacet
  facet normal 0 -1 0
    outer loop
      vertex 2.95314 0 1.2887
      vertex 4 0 1
      vertex 2.96983 0 1.32899
    endloop
  endfacet
  facet normal 0 -1 0
    outer loop
      vertex 2.933 0 1.25
      vertex 4 0 1
      vertex 2.95314 0 1.2887
    endloop
  endfacet
  facet normal 0 -1 0
    outer loop
      vertex 2.90956 0 1.21323
      vertex 4 0 1
      vertex 2.933 0 1.25
    endloop
  endfacet
  facet normal 0 -1 0
    outer loop
      vertex 2.88301 0 1.17862
      vertex 4 0 1
      vertex 2.90956 0 1.21323
    endloop
  endfacet
  facet normal 0 -1 0
    outer loop
      vertex 2.85355 0 1.14645
      vertex 4 0 1
      vertex 2.88301 0 1.17862
    endloop
  endfacet
  facet normal 0 -1 0
    outer loop
      vertex 2.82138 0 1.11699
      vertex 4 0 1
      vertex 2.85355 0 1.14645
    endloop
  endfacet
  facet normal 0 -1 0
    outer loop
      vertex 2.78677 0 1.09044
      vertex 4 0 1
      vertex 2.82138 0 1.11699
    endloop
  endfacet
  facet normal 0 -1 0
    outer loop
      vertex 2.75 0 1.067
      vertex 4 0 1
      vertex 2.78677 0 1.09044
    endloop
  endfacet
  facet normal 0 -1 0
    outer loop
      vertex 2.7113 0 1.04686
      vertex 4 0 1
      vertex 2.75 0 1.067
    endloop
  endfacet
  facet normal 0 -1 0
    outer loop
      vertex 2.67101 0 1.03017
      vertex 4 0 1
      vertex 2.7113 0 1.04686
    endloop
  endfacet
  facet normal 0 -1 0
    outer loop
      vertex 2.62939 0 1.01704
      vertex 4 0 1
      vertex 2.67101 0 1.03017
    endloop
  endfacet
  facet normal 0 -1 0
    outer loop
      vertex 2.58682 0 1.0076
      vertex 4 0 1
      vertex 2.62939 0 1.01704
    endloop
  endfacet
  facet normal 0 -1 0
    outer loop
      vertex 2.54356 0 1.00191
      vertex 4 0 1
      vertex 2.58682 0 1.0076
    endloop
  endfacet
  facet normal 0 -1 0
    outer loop
      vertex 4 0 1
      vertex 2.54356 0 1.00191
      vertex 2.5 0 1
    endloop
  endfacet
  facet normal 0 0 1
    outer loop
      vertex 4 4 1
      vertex 2.5 3 1
      vertex 4 3 1
    endloop
  endfacet
  facet normal 0 0 1
    outer loop
      vertex 1.5 1 1
      vertex 2.5 1 1
      vertex 2.5 3 1
    endloop
  endfacet
  facet normal 0 0 1
    outer loop
      vertex 1.5 1 1
      vertex 2.5 3 1
      vertex 1.5 3 1
    endloop
  endfacet
  facet normal 0 0 1
    outer loop
      vertex 4 4 1
      vertex 1.5 3 1
      vertex 2.5 3 1
    endloop
  endfacet
  facet normal -0 0 1
    outer loop
      vertex 0 4 1
      vertex 1.5 3 1
      vertex 4 4 1
    endloop
  endfacet
  facet normal 0 0 1
    outer loop
      vertex 1.5 3 1
      vertex 0 4 1
      vertex 0 3 1
    endloop
  endfacet
  facet normal 0 0 1
    outer loop
      vertex 2.5 1 1
      vertex 1.5 1 1
      vertex 2.5 0 1
    endloop
  endfacet
  facet normal 0 0 1
    outer loop
      vertex 2.5 0 1
      vertex 1.5 1 1
      vertex 1.5 0 1
    endloop
  endfacet
  facet normal -0 0 1
    outer loop
      vertex 1 1 2.5
      vertex 3 0 2.5
      vertex 3 1 2.5
    endloop
  endfacet
  facet normal 0 0 1
    outer loop
      vertex 3 0 2.5
      vertex 1 1 2.5
      vertex 1 0 2.5
    endloop
  endfacet
  facet normal -1 0 0
    outer loop
      vertex 3 0 2.5
      vertex 3 1 4
      vertex 3 1 2.5
    endloop
  endfacet
  facet normal -1 -0 0
    outer loop
      vertex 3 1 4
      vertex 3 0 2.5
      vertex 3 0 4
    endloop
  endfacet
  facet normal 0.999046 0 -0.0436795
    outer loop
      vertex 4 3 1
      vertex 3.99619 4 0.912857
      vertex 4 4 1
    endloop
  endfacet
  facet normal 0.999046 0 -0.0436795
    outer loop
      vertex 3.99619 4 0.912857
      vertex 4 3 1
      vertex 3.99619 3 0.912857
    endloop
  endfacet
  facet normal 0.999046 0 -0.0436795
    outer loop
      vertex 4 0 1
      vertex 3.99619 1 0.912857
      vertex 4 1 1
    endloop
  endfacet
  facet normal 0.999046 0 -0.0436795
    outer loop
      vertex 3.99619 1 0.912857
      vertex 4 0 1
      vertex 3.99619 0 0.912857
    endloop
  endfacet
  facet normal 0.991442 0 -0.130546
    outer loop
      vertex 3.99619 0 0.912857
      vertex 3.9848 1 0.826355
      vertex 3.99619 1 0.912857
    endloop
  endfacet
  facet normal 0.991442 0 -0.130546
    outer loop
      vertex 3.9848 1 0.826355
      vertex 3.99619 0 0.912857
      vertex 3.9848 0 0.826355
    endloop
  endfacet
  facet normal 0.991442 0 -0.130546
    outer loop
      vertex 3.99619 3 0.912857
      vertex 3.9848 4 0.826355
      vertex 3.99619 4 0.912857
    endloop
  endfacet
  facet normal 0.991442 0 -0.130546
    outer loop
      vertex 3.9848 4 0.826355
      vertex 3.99619 3 0.912857
      vertex 3.9848 3 0.826355
    endloop
  endfacet
  facet normal 0.97627 0 -0.216557
    outer loop
      vertex 3.9848 0 0.826355
      vertex 3.96591 1 0.741196
      vertex 3.9848 1 0.826355
    endloop
  endfacet
  facet normal 0.97627 0 -0.216557
    outer loop
      vertex 3.96591 1 0.741196
      vertex 3.9848 0 0.826355
      vertex 3.96591 0 0.741196
    endloop
  endfacet
  facet normal 0.97627 0 -0.216557
    outer loop
      vertex 3.9848 3 0.826355
      vertex 3.96591 4 0.741196
      vertex 3.9848 4 0.826355
    endloop
  endfacet
  facet normal 0.97627 0 -0.216557
    outer loop
      vertex 3.96591 4 0.741196
      vertex 3.9848 3 0.826355
      vertex 3.96591 3 0.741196
    endloop
  endfacet
  facet normal 0.953733 0 -0.300656
    outer loop
      vertex 3.96591 0 0.741196
      vertex 3.93968 1 0.65799
      vertex 3.96591 1 0.741196
    endloop
  endfacet
  facet normal 0.953733 0 -0.300656
    outer loop
      vertex 3.93968 1 0.65799
      vertex 3.96591 0 0.741196
      vertex 3.93968 0 0.65799
    endloop
  endfacet
  facet normal 0.953733 0 -0.300656
    outer loop
      vertex 3.96591 3 0.741196
      vertex 3.93968 4 0.65799
      vertex 3.96591 4 0.741196
    endloop
  endfacet
  facet normal 0.953733 0 -0.300656
    outer loop
      vertex 3.93968 4 0.65799
      vertex 3.96591 3 0.741196
      vertex 3.93968 3 0.65799
    endloop
  endfacet
  facet normal 0.923897 0 -0.382641
    outer loop
      vertex 3.93968 0 0.65799
      vertex 3.9063 1 0.577393
      vertex 3.93968 1 0.65799
    endloop
  endfacet
  facet normal 0.923897 0 -0.382641
    outer loop
      vertex 3.9063 1 0.577393
      vertex 3.93968 0 0.65799
      vertex 3.9063 0 0.577393
    endloop
  endfacet
  facet normal 0.923897 0 -0.382641
    outer loop
      vertex 3.93968 3 0.65799
      vertex 3.9063 4 0.577393
      vertex 3.93968 4 0.65799
    endloop
  endfacet
  facet normal 0.923897 0 -0.382641
    outer loop
      vertex 3.9063 4 0.577393
      vertex 3.93968 3 0.65799
      vertex 3.9063 3 0.577393
    endloop
  endfacet
  facet normal 0.887003 0 -0.461764
    outer loop
      vertex 3.9063 0 0.577393
      vertex 3.86601 1 0.5
      vertex 3.9063 1 0.577393
    endloop
  endfacet
  facet normal 0.887003 0 -0.461764
    outer loop
      vertex 3.86601 1 0.5
      vertex 3.9063 0 0.577393
      vertex 3.86601 0 0.5
    endloop
  endfacet
  facet normal 0.887003 0 -0.461764
    outer loop
      vertex 3.9063 3 0.577393
      vertex 3.86601 4 0.5
      vertex 3.9063 4 0.577393
    endloop
  endfacet
  facet normal 0.887003 0 -0.461764
    outer loop
      vertex 3.86601 4 0.5
      vertex 3.9063 3 0.577393
      vertex 3.86601 3 0.5
    endloop
  endfacet
  facet normal 0.843364 0 -0.537342
    outer loop
      vertex 3.86601 0 0.5
      vertex 3.81914 1 0.426437
      vertex 3.86601 1 0.5
    endloop
  endfacet
  facet normal 0.843364 0 -0.537342
    outer loop
      vertex 3.81914 1 0.426437
      vertex 3.86601 0 0.5
      vertex 3.81914 0 0.426437
    endloop
  endfacet
  facet normal 0.843364 0 -0.537342
    outer loop
      vertex 3.86601 3 0.5
      vertex 3.81914 4 0.426437
      vertex 3.86601 4 0.5
    endloop
  endfacet
  facet normal 0.843364 0 -0.537342
    outer loop
      vertex 3.81914 4 0.426437
      vertex 3.86601 3 0.5
      vertex 3.81914 3 0.426437
    endloop
  endfacet
  facet normal 0.793403 0 -0.608696
    outer loop
      vertex 3.81914 0 0.426437
      vertex 3.76604 1 0.357224
      vertex 3.81914 1 0.426437
    endloop
  endfacet
  facet normal 0.793403 0 -0.608696
    outer loop
      vertex 3.76604 1 0.357224
      vertex 3.81914 0 0.426437
      vertex 3.76604 0 0.357224
    endloop
  endfacet
  facet normal 0.793403 0 -0.608696
    outer loop
      vertex 3.81914 3 0.426437
      vertex 3.76604 4 0.357224
      vertex 3.81914 4 0.426437
    endloop
  endfacet
  facet normal 0.793403 0 -0.608696
    outer loop
      vertex 3.76604 4 0.357224
      vertex 3.81914 3 0.426437
      vertex 3.76604 3 0.357224
    endloop
  endfacet
  facet normal 0.73719 0 -0.675685
    outer loop
      vertex 3.76604 0 0.357224
      vertex 3.70709 1 0.292908
      vertex 3.76604 1 0.357224
    endloop
  endfacet
  facet normal 0.73719 0 -0.675685
    outer loop
      vertex 3.70709 1 0.292908
      vertex 3.76604 0 0.357224
      vertex 3.70709 0 0.292908
    endloop
  endfacet
  facet normal 0.73719 0 -0.675685
    outer loop
      vertex 3.76604 3 0.357224
      vertex 3.70709 4 0.292908
      vertex 3.76604 4 0.357224
    endloop
  endfacet
  facet normal 0.73719 0 -0.675685
    outer loop
      vertex 3.70709 4 0.292908
      vertex 3.76604 3 0.357224
      vertex 3.70709 3 0.292908
    endloop
  endfacet
  facet normal 0.675688 0 -0.737187
    outer loop
      vertex 3.64278 0 0.233963
      vertex 3.70709 1 0.292908
      vertex 3.70709 0 0.292908
    endloop
  endfacet
  facet normal 0.675688 0 -0.737187
    outer loop
      vertex 3.70709 1 0.292908
      vertex 3.64278 0 0.233963
      vertex 3.64278 1 0.233963
    endloop
  endfacet
  facet normal 0.675688 0 -0.737187
    outer loop
      vertex 3.64278 3 0.233963
      vertex 3.70709 4 0.292908
      vertex 3.70709 3 0.292908
    endloop
  endfacet
  facet normal 0.675688 0 -0.737187
    outer loop
      vertex 3.70709 4 0.292908
      vertex 3.64278 3 0.233963
      vertex 3.64278 4 0.233963
    endloop
  endfacet
  facet normal 0.608665 0 -0.793427
    outer loop
      vertex 3.57356 0 0.180862
      vertex 3.64278 1 0.233963
      vertex 3.64278 0 0.233963
    endloop
  endfacet
  facet normal 0.608665 0 -0.793427
    outer loop
      vertex 3.64278 1 0.233963
      vertex 3.57356 0 0.180862
      vertex 3.57356 1 0.180862
    endloop
  endfacet
  facet normal 0.608665 0 -0.793427
    outer loop
      vertex 3.57356 3 0.180862
      vertex 3.64278 4 0.233963
      vertex 3.64278 3 0.233963
    endloop
  endfacet
  facet normal 0.608665 0 -0.793427
    outer loop
      vertex 3.64278 4 0.233963
      vertex 3.57356 3 0.180862
      vertex 3.57356 4 0.180862
    endloop
  endfacet
  facet normal 0.537398 0 -0.843329
    outer loop
      vertex 3.5 0 0.133987
      vertex 3.57356 1 0.180862
      vertex 3.57356 0 0.180862
    endloop
  endfacet
  facet normal 0.537398 0 -0.843329
    outer loop
      vertex 3.57356 1 0.180862
      vertex 3.5 0 0.133987
      vertex 3.5 1 0.133987
    endloop
  endfacet
  facet normal 0.537398 0 -0.843329
    outer loop
      vertex 3.5 3 0.133987
      vertex 3.57356 4 0.180862
      vertex 3.57356 3 0.180862
    endloop
  endfacet
  facet normal 0.537398 0 -0.843329
    outer loop
      vertex 3.57356 4 0.180862
      vertex 3.5 3 0.133987
      vertex 3.5 4 0.133987
    endloop
  endfacet
  facet normal 0.461714 0 -0.887029
    outer loop
      vertex 3.42261 0 0.0937042
      vertex 3.5 1 0.133987
      vertex 3.5 0 0.133987
    endloop
  endfacet
  facet normal 0.461714 0 -0.887029
    outer loop
      vertex 3.5 1 0.133987
      vertex 3.42261 0 0.0937042
      vertex 3.42261 1 0.0937042
    endloop
  endfacet
  facet normal 0.461714 0 -0.887029
    outer loop
      vertex 3.42261 3 0.0937042
      vertex 3.5 4 0.133987
      vertex 3.5 3 0.133987
    endloop
  endfacet
  facet normal 0.461714 0 -0.887029
    outer loop
      vertex 3.5 4 0.133987
      vertex 3.42261 3 0.0937042
      vertex 3.42261 4 0.0937042
    endloop
  endfacet
  facet normal 0.382689 0 -0.923877
    outer loop
      vertex 3.34201 0 0.060318
      vertex 3.42261 1 0.0937042
      vertex 3.42261 0 0.0937042
    endloop
  endfacet
  facet normal 0.382689 0 -0.923877
    outer loop
      vertex 3.42261 1 0.0937042
      vertex 3.34201 0 0.060318
      vertex 3.34201 1 0.060318
    endloop
  endfacet
  facet normal 0.382689 0 -0.923877
    outer loop
      vertex 3.34201 3 0.060318
      vertex 3.42261 4 0.0937042
      vertex 3.42261 3 0.0937042
    endloop
  endfacet
  facet normal 0.382689 0 -0.923877
    outer loop
      vertex 3.42261 4 0.0937042
      vertex 3.34201 3 0.060318
      vertex 3.34201 4 0.060318
    endloop
  endfacet
  facet normal 0.300642 0 -0.953737
    outer loop
      vertex 3.2588 0 0.0340881
      vertex 3.34201 1 0.060318
      vertex 3.34201 0 0.060318
    endloop
  endfacet
  facet normal 0.300642 0 -0.953737
    outer loop
      vertex 3.34201 1 0.060318
      vertex 3.2588 0 0.0340881
      vertex 3.2588 1 0.0340881
    endloop
  endfacet
  facet normal 0.300642 0 -0.953737
    outer loop
      vertex 3.2588 3 0.0340881
      vertex 3.34201 4 0.060318
      vertex 3.34201 3 0.060318
    endloop
  endfacet
  facet normal 0.300642 0 -0.953737
    outer loop
      vertex 3.34201 4 0.060318
      vertex 3.2588 3 0.0340881
      vertex 3.2588 4 0.0340881
    endloop
  endfacet
  facet normal 0.216582 0 -0.976265
    outer loop
      vertex 3.17365 0 0.0151978
      vertex 3.2588 1 0.0340881
      vertex 3.2588 0 0.0340881
    endloop
  endfacet
  facet normal 0.216582 0 -0.976265
    outer loop
      vertex 3.2588 1 0.0340881
      vertex 3.17365 0 0.0151978
      vertex 3.17365 1 0.0151978
    endloop
  endfacet
  facet normal 0.216582 0 -0.976265
    outer loop
      vertex 3.17365 3 0.0151978
      vertex 3.2588 4 0.0340881
      vertex 3.2588 3 0.0340881
    endloop
  endfacet
  facet normal 0.216582 0 -0.976265
    outer loop
      vertex 3.2588 4 0.0340881
      vertex 3.17365 3 0.0151978
      vertex 3.17365 4 0.0151978
    endloop
  endfacet
  facet normal 0.130457 0 -0.991454
    outer loop
      vertex 3.08714 0 0.0038147
      vertex 3.17365 1 0.0151978
      vertex 3.17365 0 0.0151978
    endloop
  endfacet
  facet normal 0.130457 0 -0.991454
    outer loop
      vertex 3.17365 1 0.0151978
      vertex 3.08714 0 0.0038147
      vertex 3.08714 1 0.0038147
    endloop
  endfacet
  facet normal 0.130457 0 -0.991454
    outer loop
      vertex 3.08714 3 0.0038147
      vertex 3.17365 4 0.0151978
      vertex 3.17365 3 0.0151978
    endloop
  endfacet
  facet normal 0.130457 0 -0.991454
    outer loop
      vertex 3.17365 4 0.0151978
      vertex 3.08714 3 0.0038147
      vertex 3.08714 4 0.0038147
    endloop
  endfacet
  facet normal 0.0437348 0 -0.999043
    outer loop
      vertex 3 0 0
      vertex 3.08714 1 0.0038147
      vertex 3.08714 0 0.0038147
    endloop
  endfacet
  facet normal 0.0437348 0 -0.999043
    outer loop
      vertex 3.08714 1 0.0038147
      vertex 3 0 0
      vertex 3 1 0
    endloop
  endfacet
  facet normal 0.0437348 0 -0.999043
    outer loop
      vertex 3 3 0
      vertex 3.08714 4 0.0038147
      vertex 3.08714 3 0.0038147
    endloop
  endfacet
  facet normal 0.0437348 0 -0.999043
    outer loop
      vertex 3.08714 4 0.0038147
      vertex 3 3 0
      vertex 3 4 0
    endloop
  endfacet
  facet normal -0.0437258 0 -0.999044
    outer loop
      vertex 0.912842 0 0.0038147
      vertex 1 1 0
      vertex 1 0 0
    endloop
  endfacet
  facet normal -0.0437258 0 -0.999044
    outer loop
      vertex 1 1 0
      vertex 0.912842 0 0.0038147
      vertex 0.912842 1 0.0038147
    endloop
  endfacet
  facet normal -0.0437258 0 -0.999044
    outer loop
      vertex 0.912842 3 0.0038147
      vertex 1 4 0
      vertex 1 3 0
    endloop
  endfacet
  facet normal -0.0437258 0 -0.999044
    outer loop
      vertex 1 4 0
      vertex 0.912842 3 0.0038147
      vertex 0.912842 4 0.0038147
    endloop
  endfacet
  facet normal -0.130469 0 -0.991452
    outer loop
      vertex 0.82634 0 0.0151978
      vertex 0.912842 1 0.0038147
      vertex 0.912842 0 0.0038147
    endloop
  endfacet
  facet normal -0.130469 0 -0.991452
    outer loop
      vertex 0.912842 1 0.0038147
      vertex 0.82634 0 0.0151978
      vertex 0.82634 1 0.0151978
    endloop
  endfacet
  facet normal -0.130469 0 -0.991452
    outer loop
      vertex 0.82634 3 0.0151978
      vertex 0.912842 4 0.0038147
      vertex 0.912842 3 0.0038147
    endloop
  endfacet
  facet normal -0.130469 0 -0.991452
    outer loop
      vertex 0.912842 4 0.0038147
      vertex 0.82634 3 0.0151978
      vertex 0.82634 4 0.0151978
    endloop
  endfacet
  facet normal -0.216557 0 -0.97627
    outer loop
      vertex 0.74118 0 0.0340881
      vertex 0.82634 1 0.0151978
      vertex 0.82634 0 0.0151978
    endloop
  endfacet
  facet normal -0.216557 0 -0.97627
    outer loop
      vertex 0.82634 1 0.0151978
      vertex 0.74118 0 0.0340881
      vertex 0.74118 1 0.0340881
    endloop
  endfacet
  facet normal -0.216557 0 -0.97627
    outer loop
      vertex 0.74118 3 0.0340881
      vertex 0.82634 4 0.0151978
      vertex 0.82634 3 0.0151978
    endloop
  endfacet
  facet normal -0.216557 0 -0.97627
    outer loop
      vertex 0.82634 4 0.0151978
      vertex 0.74118 3 0.0340881
      vertex 0.74118 4 0.0340881
    endloop
  endfacet
  facet normal -0.300655 0 -0.953733
    outer loop
      vertex 0.657974 0 0.060318
      vertex 0.74118 1 0.0340881
      vertex 0.74118 0 0.0340881
    endloop
  endfacet
  facet normal -0.300655 0 -0.953733
    outer loop
      vertex 0.74118 1 0.0340881
      vertex 0.657974 0 0.060318
      vertex 0.657974 1 0.060318
    endloop
  endfacet
  facet normal -0.300655 0 -0.953733
    outer loop
      vertex 0.657974 3 0.060318
      vertex 0.74118 4 0.0340881
      vertex 0.74118 3 0.0340881
    endloop
  endfacet
  facet normal -0.300655 0 -0.953733
    outer loop
      vertex 0.74118 4 0.0340881
      vertex 0.657974 3 0.060318
      vertex 0.657974 4 0.060318
    endloop
  endfacet
  facet normal -0.382701 0 -0.923872
    outer loop
      vertex 0.577377 0 0.0937042
      vertex 0.657974 1 0.060318
      vertex 0.657974 0 0.060318
    endloop
  endfacet
  facet normal -0.382701 0 -0.923872
    outer loop
      vertex 0.657974 1 0.060318
      vertex 0.577377 0 0.0937042
      vertex 0.577377 1 0.0937042
    endloop
  endfacet
  facet normal -0.382701 0 -0.923872
    outer loop
      vertex 0.577377 3 0.0937042
      vertex 0.657974 4 0.060318
      vertex 0.657974 3 0.060318
    endloop
  endfacet
  facet normal -0.382701 0 -0.923872
    outer loop
      vertex 0.657974 4 0.060318
      vertex 0.577377 3 0.0937042
      vertex 0.577377 4 0.0937042
    endloop
  endfacet
  facet normal -0.461775 0 -0.886997
    outer loop
      vertex 0.5 0 0.133987
      vertex 0.577377 1 0.0937042
      vertex 0.577377 0 0.0937042
    endloop
  endfacet
  facet normal -0.461775 0 -0.886997
    outer loop
      vertex 0.577377 1 0.0937042
      vertex 0.5 0 0.133987
      vertex 0.5 1 0.133987
    endloop
  endfacet
  facet normal -0.461775 0 -0.886997
    outer loop
      vertex 0.5 3 0.133987
      vertex 0.577377 4 0.0937042
      vertex 0.577377 3 0.0937042
    endloop
  endfacet
  facet normal -0.461775 0 -0.886997
    outer loop
      vertex 0.577377 4 0.0937042
      vertex 0.5 3 0.133987
      vertex 0.5 4 0.133987
    endloop
  endfacet
  facet normal -0.537305 0 -0.843388
    outer loop
      vertex 0.426422 0 0.180862
      vertex 0.5 1 0.133987
      vertex 0.5 0 0.133987
    endloop
  endfacet
  facet normal -0.537305 0 -0.843388
    outer loop
      vertex 0.5 1 0.133987
      vertex 0.426422 0 0.180862
      vertex 0.426422 1 0.180862
    endloop
  endfacet
  facet normal -0.537305 0 -0.843388
    outer loop
      vertex 0.426422 3 0.180862
      vertex 0.5 4 0.133987
      vertex 0.5 3 0.133987
    endloop
  endfacet
  facet normal -0.537305 0 -0.843388
    outer loop
      vertex 0.5 4 0.133987
      vertex 0.426422 3 0.180862
      vertex 0.426422 4 0.180862
    endloop
  endfacet
  facet normal -0.608698 0 -0.793402
    outer loop
      vertex 0.357208 0 0.233963
      vertex 0.426422 1 0.180862
      vertex 0.426422 0 0.180862
    endloop
  endfacet
  facet normal -0.608698 0 -0.793402
    outer loop
      vertex 0.426422 1 0.180862
      vertex 0.357208 0 0.233963
      vertex 0.357208 1 0.233963
    endloop
  endfacet
  facet normal -0.608698 0 -0.793402
    outer loop
      vertex 0.357208 3 0.233963
      vertex 0.426422 4 0.180862
      vertex 0.426422 3 0.180862
    endloop
  endfacet
  facet normal -0.608698 0 -0.793402
    outer loop
      vertex 0.426422 4 0.180862
      vertex 0.357208 3 0.233963
      vertex 0.357208 4 0.233963
    endloop
  endfacet
  facet normal -0.675654 0 -0.737219
    outer loop
      vertex 0.292892 0 0.292908
      vertex 0.357208 1 0.233963
      vertex 0.357208 0 0.233963
    endloop
  endfacet
  facet normal -0.675654 0 -0.737219
    outer loop
      vertex 0.357208 1 0.233963
      vertex 0.292892 0 0.292908
      vertex 0.292892 1 0.292908
    endloop
  endfacet
  facet normal -0.675654 0 -0.737219
    outer loop
      vertex 0.292892 3 0.292908
      vertex 0.357208 4 0.233963
      vertex 0.357208 3 0.233963
    endloop
  endfacet
  facet normal -0.675654 0 -0.737219
    outer loop
      vertex 0.357208 4 0.233963
      vertex 0.292892 3 0.292908
      vertex 0.292892 4 0.292908
    endloop
  endfacet
  facet normal -0.737225 0 -0.675648
    outer loop
      vertex 0.292892 0 0.292908
      vertex 0.233948 1 0.357224
      vertex 0.292892 1 0.292908
    endloop
  endfacet
  facet normal -0.737225 -0 -0.675648
    outer loop
      vertex 0.233948 1 0.357224
      vertex 0.292892 0 0.292908
      vertex 0.233948 0 0.357224
    endloop
  endfacet
  facet normal -0.737225 0 -0.675648
    outer loop
      vertex 0.292892 3 0.292908
      vertex 0.233948 4 0.357224
      vertex 0.292892 4 0.292908
    endloop
  endfacet
  facet normal -0.737225 -0 -0.675648
    outer loop
      vertex 0.233948 4 0.357224
      vertex 0.292892 3 0.292908
      vertex 0.233948 3 0.357224
    endloop
  endfacet
  facet normal -0.793398 0 -0.608704
    outer loop
      vertex 0.233948 0 0.357224
      vertex 0.180847 1 0.426437
      vertex 0.233948 1 0.357224
    endloop
  endfacet
  facet normal -0.793398 -0 -0.608704
    outer loop
      vertex 0.180847 1 0.426437
      vertex 0.233948 0 0.357224
      vertex 0.180847 0 0.426437
    endloop
  endfacet
  facet normal -0.793398 0 -0.608704
    outer loop
      vertex 0.233948 3 0.357224
      vertex 0.180847 4 0.426437
      vertex 0.233948 4 0.357224
    endloop
  endfacet
  facet normal -0.793398 -0 -0.608704
    outer loop
      vertex 0.180847 4 0.426437
      vertex 0.233948 3 0.357224
      vertex 0.180847 3 0.426437
    endloop
  endfacet
  facet normal -0.843338 0 -0.537383
    outer loop
      vertex 0.180847 0 0.426437
      vertex 0.133972 1 0.5
      vertex 0.180847 1 0.426437
    endloop
  endfacet
  facet normal -0.843338 -0 -0.537383
    outer loop
      vertex 0.133972 1 0.5
      vertex 0.180847 0 0.426437
      vertex 0.133972 0 0.5
    endloop
  endfacet
  facet normal -0.843338 0 -0.537383
    outer loop
      vertex 0.180847 3 0.426437
      vertex 0.133972 4 0.5
      vertex 0.180847 4 0.426437
    endloop
  endfacet
  facet normal -0.843338 -0 -0.537383
    outer loop
      vertex 0.133972 4 0.5
      vertex 0.180847 3 0.426437
      vertex 0.133972 3 0.5
    endloop
  endfacet
  facet normal -0.887035 0 -0.461701
    outer loop
      vertex 0.133972 0 0.5
      vertex 0.093689 1 0.577393
      vertex 0.133972 1 0.5
    endloop
  endfacet
  facet normal -0.887035 -0 -0.461701
    outer loop
      vertex 0.093689 1 0.577393
      vertex 0.133972 0 0.5
      vertex 0.093689 0 0.577393
    endloop
  endfacet
  facet normal -0.887035 0 -0.461701
    outer loop
      vertex 0.133972 3 0.5
      vertex 0.093689 4 0.577393
      vertex 0.133972 4 0.5
    endloop
  endfacet
  facet normal -0.887035 -0 -0.461701
    outer loop
      vertex 0.093689 4 0.577393
      vertex 0.133972 3 0.5
      vertex 0.093689 3 0.577393
    endloop
  endfacet
  facet normal -0.923872 0 -0.382702
    outer loop
      vertex 0.093689 0 0.577393
      vertex 0.0603027 1 0.65799
      vertex 0.093689 1 0.577393
    endloop
  endfacet
  facet normal -0.923872 -0 -0.382702
    outer loop
      vertex 0.0603027 1 0.65799
      vertex 0.093689 0 0.577393
      vertex 0.0603027 0 0.65799
    endloop
  endfacet
  facet normal -0.923872 0 -0.382702
    outer loop
      vertex 0.093689 3 0.577393
      vertex 0.0603027 4 0.65799
      vertex 0.093689 4 0.577393
    endloop
  endfacet
  facet normal -0.923872 -0 -0.382702
    outer loop
      vertex 0.0603027 4 0.65799
      vertex 0.093689 3 0.577393
      vertex 0.0603027 3 0.65799
    endloop
  endfacet
  facet normal -0.953733 0 -0.300654
    outer loop
      vertex 0.0603027 0 0.65799
      vertex 0.0340729 1 0.741196
      vertex 0.0603027 1 0.65799
    endloop
  endfacet
  facet normal -0.953733 -0 -0.300654
    outer loop
      vertex 0.0340729 1 0.741196
      vertex 0.0603027 0 0.65799
      vertex 0.0340729 0 0.741196
    endloop
  endfacet
  facet normal -0.953733 0 -0.300654
    outer loop
      vertex 0.0603027 3 0.65799
      vertex 0.0340729 4 0.741196
      vertex 0.0603027 4 0.65799
    endloop
  endfacet
  facet normal -0.953733 -0 -0.300654
    outer loop
      vertex 0.0340729 4 0.741196
      vertex 0.0603027 3 0.65799
      vertex 0.0340729 3 0.741196
    endloop
  endfacet
  facet normal -0.976269 0 -0.216561
    outer loop
      vertex 0.0340729 0 0.741196
      vertex 0.0151825 1 0.826355
      vertex 0.0340729 1 0.741196
    endloop
  endfacet
  facet normal -0.976269 -0 -0.216561
    outer loop
      vertex 0.0151825 1 0.826355
      vertex 0.0340729 0 0.741196
      vertex 0.0151825 0 0.826355
    endloop
  endfacet
  facet normal -0.976269 0 -0.216561
    outer loop
      vertex 0.0340729 3 0.741196
      vertex 0.0151825 4 0.826355
      vertex 0.0340729 4 0.741196
    endloop
  endfacet
  facet normal -0.976269 -0 -0.216561
    outer loop
      vertex 0.0151825 4 0.826355
      vertex 0.0340729 3 0.741196
      vertex 0.0151825 3 0.826355
    endloop
  endfacet
  facet normal -0.991452 0 -0.130468
    outer loop
      vertex 0.0151825 0 0.826355
      vertex 0.00379944 1 0.912857
      vertex 0.0151825 1 0.826355
    endloop
  endfacet
  facet normal -0.991452 -0 -0.130468
    outer loop
      vertex 0.00379944 1 0.912857
      vertex 0.0151825 0 0.826355
      vertex 0.00379944 0 0.912857
    endloop
  endfacet
  facet normal -0.991452 0 -0.130468
    outer loop
      vertex 0.0151825 3 0.826355
      vertex 0.00379944 4 0.912857
      vertex 0.0151825 4 0.826355
    endloop
  endfacet
  facet normal -0.991452 -0 -0.130468
    outer loop
      vertex 0.00379944 4 0.912857
      vertex 0.0151825 3 0.826355
      vertex 0.00379944 3 0.912857
    endloop
  endfacet
  facet normal -0.999051 0 -0.0435587
    outer loop
      vertex 0.00379944 3 0.912857
      vertex 0 4 1
      vertex 0.00379944 4 0.912857
    endloop
  endfacet
  facet normal -0.999051 -0 -0.0435587
    outer loop
      vertex 0 4 1
      vertex 0.00379944 3 0.912857
      vertex 0 3 1
    endloop
  endfacet
  facet normal -0.999051 0 -0.0435587
    outer loop
      vertex 0.00379944 0 0.912857
      vertex 0 1 1
      vertex 0.00379944 1 0.912857
    endloop
  endfacet
  facet normal -0.999051 -0 -0.0435587
    outer loop
      vertex 0 1 1
      vertex 0.00379944 0 0.912857
      vertex 0 0 1
    endloop
  endfacet
  facet normal 1 -0 0
    outer loop
      vertex 1 0 4
      vertex 1 1 2.5
      vertex 1 1 4
    endloop
  endfacet
  facet normal 1 0 0
    outer loop
      vertex 1 1 2.5
      vertex 1 0 4
      vertex 1 0 2.5
    endloop
  endfacet
  facet normal 0.99906 -0 0.0433476
    outer loop
      vertex 1 0 1.5
      vertex 1.00189 1 1.45644
      vertex 1 1 1.5
    endloop
  endfacet
  facet normal 0.99906 0 0.0433476
    outer loop
      vertex 1.00189 1 1.45644
      vertex 1 0 1.5
      vertex 1.00189 0 1.45644
    endloop
  endfacet
  facet normal 0.991461 -0 0.130407
    outer loop
      vertex 1.00189 0 1.45644
      vertex 1.00758 1 1.41318
      vertex 1.00189 1 1.45644
    endloop
  endfacet
  facet normal 0.991461 0 0.130407
    outer loop
      vertex 1.00758 1 1.41318
      vertex 1.00189 0 1.45644
      vertex 1.00758 0 1.41318
    endloop
  endfacet
  facet normal 0.976236 -0 0.216712
    outer loop
      vertex 1.00758 0 1.41318
      vertex 1.01703 1 1.37061
      vertex 1.00758 1 1.41318
    endloop
  endfacet
  facet normal 0.976236 0 0.216712
    outer loop
      vertex 1.01703 1 1.37061
      vertex 1.00758 0 1.41318
      vertex 1.01703 0 1.37061
    endloop
  endfacet
  facet normal 0.953735 -0 0.300649
    outer loop
      vertex 1.01703 0 1.37061
      vertex 1.03015 1 1.32899
      vertex 1.01703 1 1.37061
    endloop
  endfacet
  facet normal 0.953735 0 0.300649
    outer loop
      vertex 1.03015 1 1.32899
      vertex 1.01703 0 1.37061
      vertex 1.03015 0 1.32899
    endloop
  endfacet
  facet normal 0.923869 -0 0.38271
    outer loop
      vertex 1.03015 0 1.32899
      vertex 1.04684 1 1.2887
      vertex 1.03015 1 1.32899
    endloop
  endfacet
  facet normal 0.923869 0 0.38271
    outer loop
      vertex 1.04684 1 1.2887
      vertex 1.03015 0 1.32899
      vertex 1.04684 0 1.2887
    endloop
  endfacet
  facet normal 0.886973 -0 0.461822
    outer loop
      vertex 1.04684 0 1.2887
      vertex 1.06699 1 1.25
      vertex 1.04684 1 1.2887
    endloop
  endfacet
  facet normal 0.886973 0 0.461822
    outer loop
      vertex 1.06699 1 1.25
      vertex 1.04684 0 1.2887
      vertex 1.06699 0 1.25
    endloop
  endfacet
  facet normal 0.84334 -0 0.53738
    outer loop
      vertex 1.06699 0 1.25
      vertex 1.09042 1 1.21323
      vertex 1.06699 1 1.25
    endloop
  endfacet
  facet normal 0.84334 0 0.53738
    outer loop
      vertex 1.09042 1 1.21323
      vertex 1.06699 0 1.25
      vertex 1.09042 0 1.21323
    endloop
  endfacet
  facet normal 0.793433 -0 0.608658
    outer loop
      vertex 1.09042 0 1.21323
      vertex 1.11697 1 1.17862
      vertex 1.09042 1 1.21323
    endloop
  endfacet
  facet normal 0.793433 0 0.608658
    outer loop
      vertex 1.11697 1 1.17862
      vertex 1.09042 0 1.21323
      vertex 1.11697 0 1.17862
    endloop
  endfacet
  facet normal 0.737373 -0 0.675486
    outer loop
      vertex 1.11697 0 1.17862
      vertex 1.14644 1 1.14645
      vertex 1.11697 1 1.17862
    endloop
  endfacet
  facet normal 0.737373 0 0.675486
    outer loop
      vertex 1.14644 1 1.14645
      vertex 1.11697 0 1.17862
      vertex 1.14644 0 1.14645
    endloop
  endfacet
  facet normal 0.675475 0 0.737383
    outer loop
      vertex 1.14644 1 1.14645
      vertex 1.1786 0 1.11699
      vertex 1.1786 1 1.11699
    endloop
  endfacet
  facet normal 0.675475 0 0.737383
    outer loop
      vertex 1.1786 0 1.11699
      vertex 1.14644 1 1.14645
      vertex 1.14644 0 1.14645
    endloop
  endfacet
  facet normal 0.608658 0 0.793433
    outer loop
      vertex 1.1786 1 1.11699
      vertex 1.21321 0 1.09044
      vertex 1.21321 1 1.09044
    endloop
  endfacet
  facet normal 0.608658 0 0.793433
    outer loop
      vertex 1.21321 0 1.09044
      vertex 1.1786 1 1.11699
      vertex 1.1786 0 1.11699
    endloop
  endfacet
  facet normal 0.537335 0 0.843369
    outer loop
      vertex 1.21321 1 1.09044
      vertex 1.25 0 1.067
      vertex 1.25 1 1.067
    endloop
  endfacet
  facet normal 0.537335 0 0.843369
    outer loop
      vertex 1.25 0 1.067
      vertex 1.21321 1 1.09044
      vertex 1.21321 0 1.09044
    endloop
  endfacet
  facet normal 0.461829 0 0.886969
    outer loop
      vertex 1.25 1 1.067
      vertex 1.28868 0 1.04686
      vertex 1.28868 1 1.04686
    endloop
  endfacet
  facet normal 0.461829 0 0.886969
    outer loop
      vertex 1.28868 0 1.04686
      vertex 1.25 1 1.067
      vertex 1.25 0 1.067
    endloop
  endfacet
  facet normal 0.382629 0 0.923902
    outer loop
      vertex 1.28868 1 1.04686
      vertex 1.32898 0 1.03017
      vertex 1.32898 1 1.03017
    endloop
  endfacet
  facet normal 0.382629 0 0.923902
    outer loop
      vertex 1.32898 0 1.03017
      vertex 1.28868 1 1.04686
      vertex 1.28868 0 1.04686
    endloop
  endfacet
  facet normal 0.300923 0 0.953648
    outer loop
      vertex 1.32898 1 1.03017
      vertex 1.37059 0 1.01704
      vertex 1.37059 1 1.01704
    endloop
  endfacet
  facet normal 0.300923 0 0.953648
    outer loop
      vertex 1.37059 0 1.01704
      vertex 1.32898 1 1.03017
      vertex 1.32898 0 1.03017
    endloop
  endfacet
  facet normal 0.216493 0 0.976284
    outer loop
      vertex 1.37059 1 1.01704
      vertex 1.41316 0 1.0076
      vertex 1.41316 1 1.0076
    endloop
  endfacet
  facet normal 0.216493 0 0.976284
    outer loop
      vertex 1.41316 0 1.0076
      vertex 1.37059 1 1.01704
      vertex 1.37059 0 1.01704
    endloop
  endfacet
  facet normal 0.130407 0 0.991461
    outer loop
      vertex 1.41316 1 1.0076
      vertex 1.45642 0 1.00191
      vertex 1.45642 1 1.00191
    endloop
  endfacet
  facet normal 0.130407 0 0.991461
    outer loop
      vertex 1.45642 0 1.00191
      vertex 1.41316 1 1.0076
      vertex 1.41316 0 1.0076
    endloop
  endfacet
  facet normal 0.0437854 0 0.999041
    outer loop
      vertex 1.45642 1 1.00191
      vertex 1.5 0 1
      vertex 1.5 1 1
    endloop
  endfacet
  facet normal 0.0437854 0 0.999041
    outer loop
      vertex 1.5 0 1
      vertex 1.45642 1 1.00191
      vertex 1.45642 0 1.00191
    endloop
  endfacet
  facet normal -0.0438055 0 0.99904
    outer loop
      vertex 2.5 1 1
      vertex 2.54356 0 1.00191
      vertex 2.54356 1 1.00191
    endloop
  endfacet
  facet normal -0.0438055 0 0.99904
    outer loop
      vertex 2.54356 0 1.00191
      vertex 2.5 1 1
      vertex 2.5 0 1
    endloop
  endfacet
  facet normal -0.130407 0 0.991461
    outer loop
      vertex 2.54356 1 1.00191
      vertex 2.58682 0 1.0076
      vertex 2.58682 1 1.0076
    endloop
  endfacet
  facet normal -0.130407 0 0.991461
    outer loop
      vertex 2.58682 0 1.0076
      vertex 2.54356 1 1.00191
      vertex 2.54356 0 1.00191
    endloop
  endfacet
  facet normal -0.216493 0 0.976284
    outer loop
      vertex 2.58682 1 1.0076
      vertex 2.62939 0 1.01704
      vertex 2.62939 1 1.01704
    endloop
  endfacet
  facet normal -0.216493 0 0.976284
    outer loop
      vertex 2.62939 0 1.01704
      vertex 2.58682 1 1.0076
      vertex 2.58682 0 1.0076
    endloop
  endfacet
  facet normal -0.300857 0 0.953669
    outer loop
      vertex 2.62939 1 1.01704
      vertex 2.67101 0 1.03017
      vertex 2.67101 1 1.03017
    endloop
  endfacet
  facet normal -0.300857 0 0.953669
    outer loop
      vertex 2.67101 0 1.03017
      vertex 2.62939 1 1.01704
      vertex 2.62939 0 1.01704
    endloop
  endfacet
  facet normal -0.38271 0 0.923869
    outer loop
      vertex 2.67101 1 1.03017
      vertex 2.7113 0 1.04686
      vertex 2.7113 1 1.04686
    endloop
  endfacet
  facet normal -0.38271 0 0.923869
    outer loop
      vertex 2.7113 0 1.04686
      vertex 2.67101 1 1.03017
      vertex 2.67101 0 1.03017
    endloop
  endfacet
  facet normal -0.461641 0 0.887067
    outer loop
      vertex 2.7113 1 1.04686
      vertex 2.75 0 1.067
      vertex 2.75 1 1.067
    endloop
  endfacet
  facet normal -0.461641 0 0.887067
    outer loop
      vertex 2.75 0 1.067
      vertex 2.7113 1 1.04686
      vertex 2.7113 0 1.04686
    endloop
  endfacet
  facet normal -0.537543 0 0.843236
    outer loop
      vertex 2.75 1 1.067
      vertex 2.78677 0 1.09044
      vertex 2.78677 1 1.09044
    endloop
  endfacet
  facet normal -0.537543 0 0.843236
    outer loop
      vertex 2.78677 0 1.09044
      vertex 2.75 1 1.067
      vertex 2.75 0 1.067
    endloop
  endfacet
  facet normal -0.608658 0 0.793433
    outer loop
      vertex 2.78677 1 1.09044
      vertex 2.82138 0 1.11699
      vertex 2.82138 1 1.11699
    endloop
  endfacet
  facet normal -0.608658 0 0.793433
    outer loop
      vertex 2.82138 0 1.11699
      vertex 2.78677 1 1.09044
      vertex 2.78677 0 1.09044
    endloop
  endfacet
  facet normal -0.675361 0 0.737487
    outer loop
      vertex 2.82138 1 1.11699
      vertex 2.85355 0 1.14645
      vertex 2.85355 1 1.14645
    endloop
  endfacet
  facet normal -0.675361 0 0.737487
    outer loop
      vertex 2.85355 0 1.14645
      vertex 2.82138 1 1.11699
      vertex 2.82138 0 1.11699
    endloop
  endfacet
  facet normal -0.737487 0 0.675361
    outer loop
      vertex 2.85355 0 1.14645
      vertex 2.88301 1 1.17862
      vertex 2.85355 1 1.14645
    endloop
  endfacet
  facet normal -0.737487 0 0.675361
    outer loop
      vertex 2.88301 1 1.17862
      vertex 2.85355 0 1.14645
      vertex 2.88301 0 1.17862
    endloop
  endfacet
  facet normal -0.793433 0 0.608658
    outer loop
      vertex 2.88301 0 1.17862
      vertex 2.90956 1 1.21323
      vertex 2.88301 1 1.17862
    endloop
  endfacet
  facet normal -0.793433 0 0.608658
    outer loop
      vertex 2.90956 1 1.21323
      vertex 2.88301 0 1.17862
      vertex 2.90956 0 1.21323
    endloop
  endfacet
  facet normal -0.843236 0 0.537543
    outer loop
      vertex 2.90956 0 1.21323
      vertex 2.933 1 1.25
      vertex 2.90956 1 1.21323
    endloop
  endfacet
  facet normal -0.843236 0 0.537543
    outer loop
      vertex 2.933 1 1.25
      vertex 2.90956 0 1.21323
      vertex 2.933 0 1.25
    endloop
  endfacet
  facet normal -0.887067 0 0.461641
    outer loop
      vertex 2.933 0 1.25
      vertex 2.95314 1 1.2887
      vertex 2.933 1 1.25
    endloop
  endfacet
  facet normal -0.887067 0 0.461641
    outer loop
      vertex 2.95314 1 1.2887
      vertex 2.933 0 1.25
      vertex 2.95314 0 1.2887
    endloop
  endfacet
  facet normal -0.923869 0 0.38271
    outer loop
      vertex 2.95314 0 1.2887
      vertex 2.96983 1 1.32899
      vertex 2.95314 1 1.2887
    endloop
  endfacet
  facet normal -0.923869 0 0.38271
    outer loop
      vertex 2.96983 1 1.32899
      vertex 2.95314 0 1.2887
      vertex 2.96983 0 1.32899
    endloop
  endfacet
  facet normal -0.953669 0 0.300857
    outer loop
      vertex 2.96983 0 1.32899
      vertex 2.98296 1 1.37061
      vertex 2.96983 1 1.32899
    endloop
  endfacet
  facet normal -0.953669 0 0.300857
    outer loop
      vertex 2.98296 1 1.37061
      vertex 2.96983 0 1.32899
      vertex 2.98296 0 1.37061
    endloop
  endfacet
  facet normal -0.976284 0 0.216493
    outer loop
      vertex 2.98296 0 1.37061
      vertex 2.9924 1 1.41318
      vertex 2.98296 1 1.37061
    endloop
  endfacet
  facet normal -0.976284 0 0.216493
    outer loop
      vertex 2.9924 1 1.41318
      vertex 2.98296 0 1.37061
      vertex 2.9924 0 1.41318
    endloop
  endfacet
  facet normal -0.991461 0 0.130407
    outer loop
      vertex 2.9924 0 1.41318
      vertex 2.99809 1 1.45644
      vertex 2.9924 1 1.41318
    endloop
  endfacet
  facet normal -0.991461 0 0.130407
    outer loop
      vertex 2.99809 1 1.45644
      vertex 2.9924 0 1.41318
      vertex 2.99809 0 1.45644
    endloop
  endfacet
  facet normal -0.99904 0 0.0438055
    outer loop
      vertex 2.99809 0 1.45644
      vertex 3 1 1.5
      vertex 2.99809 1 1.45644
    endloop
  endfacet
  facet normal -0.99904 0 0.0438055
    outer loop
      vertex 3 1 1.5
      vertex 2.99809 0 1.45644
      vertex 3 0 1.5
    endloop
  endfacet
  facet normal 0 0 -1
    outer loop
      vertex 1 0 1.5
      vertex 3 1 1.5
      vertex 3 0 1.5
    endloop
  endfacet
  facet normal -0 0 -1
    outer loop
      vertex 3 1 1.5
      vertex 1 0 1.5
      vertex 1 1 1.5
    endloop
  endfacet
endsolid OpenSCAD_Model
